<?xml version="1.0" standalone="no"?>
<!DOCTYPE svg PUBLIC "-//W3C//DTD SVG 1.1//EN" "http://www.w3.org/Graphics/SVG/1.1/DTD/svg11.dtd" >
<svg xmlns="http://www.w3.org/2000/svg">
<metadata>
<json>
<![CDATA[
{
	"fontFamily": "eicons",
	"majorVersion": 1,
	"minorVersion": 0,
	"description": "支撑UB业务的webfont\nFont generated by IcoMoon.",
	"fontURL": "https://github.com/ecomfe/eicons",
	"copyright": "baidu",
	"licenseURL": "http://wenku.baidu.com/link?url=Al7JnSyYEhbV6sAncf281w5vvE8N6nbb5FIu-wKbzTSyiT-14zLoxg-WPj31RFrxHg_tf90vAWcaUnGMOiZXzu9-5Xw-H5EaWytxXL_K3au",
	"license": "baidu",
	"designer": "langxingjian jinlei yankun",
	"designerURL": "https://github.com/ecomfe/eicons",
	"version": "Version 1.0",
	"fontId": "eicons",
	"psName": "eicons",
	"subFamily": "Regular",
	"fullName": "eicons"
}
]]>
</json>
</metadata>
<defs>
<font id="eicons" horiz-adv-x="1024">
<font-face units-per-em="1024" ascent="960" descent="-64" />
<missing-glyph horiz-adv-x="1024" />
<glyph unicode="&#x20;" horiz-adv-x="512" d="" />
<glyph unicode="&#xf700;" glyph-name="access-network" data-tags="access-network" d="M64.064 960h895.872c35.584 0 64.064-28.736 64.064-64.128v-639.68c0-35.008-28.672-64.128-64.064-64.128h-895.872c-35.584 0-64.064 28.736-64.064 64.128v639.68c0 35.008 28.672 64.128 64.064 64.128zM128 832v-512h768v512h-768zM128.448 64c-35.584 0-64.448-28.416-64.448-64 0-35.328 28.8-64 64.448-64h767.104c35.584 0 64.448 28.416 64.448 64 0 35.328-28.8 64-64.448 64h-767.104zM384 192v-128h256v128h-256zM768 704v-64h64v64h-64zM768 576v-64h64v64h-64zM768 448v-64h64v64h-64zM256 704v-64h64v64h-64zM256 576v-64h64v64h-64zM256 448v-64h64v64h-64zM192 768v-64h64v64h-64zM192 640v-64h64v64h-64zM192 512v-64h64v64h-64zM384 704v-64h64v64h-64zM384 576v-64h64v64h-64zM384 448v-64h64v64h-64zM320 768v-64h64v64h-64zM320 640v-64h64v64h-64zM320 512v-64h64v64h-64zM512 704v-64h64v64h-64zM512 576v-64h64v64h-64zM512 448v-64h64v64h-64zM448 768v-64h64v64h-64zM448 640v-64h64v64h-64zM448 512v-64h64v64h-64zM640 704v-64h64v64h-64zM640 576v-64h64v64h-64zM640 448v-64h64v64h-64zM576 768v-64h64v64h-64zM576 640v-64h64v64h-64zM576 512v-64h64v64h-64zM704 768v-64h64v64h-64zM704 640v-64h64v64h-64zM704 512v-64h64v64h-64z" />
<glyph unicode="&#xf701;" glyph-name="add" data-tags="add" d="M512-64c-282.752 0-512 229.248-512 512s229.248 512 512 512c282.752 0 512-229.248 512-512s-229.248-512-512-512zM512 64c212.096 0 384 171.904 384 384s-171.904 384-384 384c-212.096 0-384-171.904-384-384s171.904-384 384-384zM320 512h384c35.328 0 64-28.672 64-64s-28.672-64-64-64h-384c-35.328 0-64 28.672-64 64s28.672 64 64 64zM448 256v384c0 35.328 28.672 64 64 64s64-28.672 64-64v-384c0-35.328-28.672-64-64-64s-64 28.672-64 64z" />
<glyph unicode="&#xf702;" glyph-name="ads-data" data-tags="ads-data" d="M64.064 960h895.872c35.584 0 64.064-28.672 64.064-64.064v-895.872c0-35.584-28.672-64.064-64.064-64.064h-895.872c-35.584 0-64.064 28.672-64.064 64.064v895.872c0 35.584 28.672 64.064 64.064 64.064zM128 832v-768h768v768h-768zM192 768v-128h640v128h-640zM704 576v-256h128v256h-128zM192 576v-448h448v448h-448z" />
<glyph unicode="&#xf703;" glyph-name="age" data-tags="age" d="M448 384h-128v128h-128v-128h-63.552c-35.584 0-64.448-28.864-64.448-63.424v-256.576h-64v-128h1024v128h-64v256.576c0 35.008-28.8 63.424-64.448 63.424h-63.552v192h-128v-192h-128v256h-128v-256zM192 64v192h640v-192h-640zM256 576c35.328 0 64 28.672 64 64s-64 128-64 128c0 0-64-92.672-64-128s28.672-64 64-64zM512 704c35.328 0 64 28.672 64 64s-64 128-64 128c0 0-64-92.672-64-128s28.672-64 64-64zM768 640c35.328 0 64 28.672 64 64s-64 128-64 128c0 0-64-92.672-64-128s28.672-64 64-64z" />
<glyph unicode="&#xf704;" glyph-name="alert" data-tags="alert" d="M512-64c-282.752 0-512 229.248-512 512s229.248 512 512 512c282.752 0 512-229.248 512-512s-229.248-512-512-512zM512 64c212.096 0 384 171.904 384 384s-171.904 384-384 384c-212.096 0-384-171.904-384-384s171.904-384 384-384zM512 357.504l-90.624-90.624c-24.64-24.64-65.408-24.832-90.368 0.128-25.152 25.152-25.024 65.472-0.128 90.368l90.624 90.624-90.624 90.624c-24.64 24.64-24.832 65.408 0.128 90.368 25.152 25.152 65.472 25.024 90.368 0.128l90.624-90.624 90.624 90.624c24.64 24.64 65.408 24.832 90.368-0.128 25.152-25.152 25.024-65.472 0.128-90.368l-90.624-90.624 90.624-90.624c24.64-24.64 24.832-65.408-0.128-90.368-25.152-25.152-65.472-25.024-90.368-0.128l-90.624 90.624z" />
<glyph unicode="&#xf705;" glyph-name="all" data-tags="all" d="M64 960h128c35.328 0 64-28.672 64-64v-128c0-35.328-28.672-64-64-64h-128c-35.328 0-64 28.672-64 64v128c0 35.328 28.672 64 64 64zM64 576h128c35.328 0 64-28.672 64-64v-128c0-35.328-28.672-64-64-64h-128c-35.328 0-64 28.672-64 64v128c0 35.328 28.672 64 64 64zM64 192h128c35.328 0 64-28.672 64-64v-128c0-35.328-28.672-64-64-64h-128c-35.328 0-64 28.672-64 64v128c0 35.328 28.672 64 64 64zM448 960h128c35.328 0 64-28.672 64-64v-128c0-35.328-28.672-64-64-64h-128c-35.328 0-64 28.672-64 64v128c0 35.328 28.672 64 64 64zM448 576h128c35.328 0 64-28.672 64-64v-128c0-35.328-28.672-64-64-64h-128c-35.328 0-64 28.672-64 64v128c0 35.328 28.672 64 64 64zM448 192h128c35.328 0 64-28.672 64-64v-128c0-35.328-28.672-64-64-64h-128c-35.328 0-64 28.672-64 64v128c0 35.328 28.672 64 64 64zM832 960h128c35.328 0 64-28.672 64-64v-128c0-35.328-28.672-64-64-64h-128c-35.328 0-64 28.672-64 64v128c0 35.328 28.672 64 64 64zM832 576h128c35.328 0 64-28.672 64-64v-128c0-35.328-28.672-64-64-64h-128c-35.328 0-64 28.672-64 64v128c0 35.328 28.672 64 64 64zM832 192h128c35.328 0 64-28.672 64-64v-128c0-35.328-28.672-64-64-64h-128c-35.328 0-64 28.672-64 64v128c0 35.328 28.672 64 64 64z" />
<glyph unicode="&#xf706;" glyph-name="anchor" data-tags="anchor" d="M945.856 142.144c-94.080-127.552-257.984-207.68-433.856-206.144-175.872-1.536-339.776 78.592-433.856 206.144l-78.144-78.144v256h256l-70.336-70.336c56.384-93.44 150.848-160.576 262.336-179.648v387.008c-110.208 28.608-192 127.808-192 246.976 0 141.376 114.624 256 256 256s256-114.624 256-256c0-119.168-81.792-218.368-192-246.976v-387.008c111.488 19.072 205.952 86.208 262.336 179.648l-70.336 70.336h256v-256l-78.144 78.144zM640 704c0 70.72-57.28 128-128 128s-128-57.28-128-128c0-70.72 57.28-128 128-128s128 57.344 128 128v0z" />
<glyph unicode="&#xf707;" glyph-name="arrow-down" data-tags="arrow-down" d="M800 672l96-96-384-384-384 384 96 96 288-288 288 288z" />
<glyph unicode="&#xf708;" glyph-name="arrow-down-three" data-tags="arrow-down-three" d="M512 256l256 320h-512z" />
<glyph unicode="&#xf709;" glyph-name="arrow-down-two" data-tags="arrow-down-two" d="M448 320l-224 224-96-96 384-384 384 384-96 96-224-224v448.128c0 35.264-28.416 63.872-64 63.872-35.328 0-64-28.544-64-63.872v-448.128z" />
<glyph unicode="&#xf70a;" glyph-name="arrow-growth" data-tags="arrow-growth" d="M815.104 656.576v4.096h3.968l-3.968-4.096zM754.88 594.432v6.016h5.824l-5.824-6.016zM694.656 532.352v7.872h7.68l-7.68-7.872zM633.728 540.224h0.704v-0.64l-0.704 0.64zM572.928 600.448h1.344v-1.28l-1.344 1.28zM453.696 598.016v2.432h2.432l-2.432-2.432zM393.472 537.28v2.944h2.944l-2.944-2.944zM333.248 476.48v3.52h3.52l-3.52-3.52zM272.96 415.744v4.032h3.968l-3.968-4.032zM212.736 354.944v4.608h4.544l-4.544-4.608zM152.512 294.144v5.12h5.056l-5.056-5.12zM152.512 481.216v-1.216h-1.216l1.216 1.216zM212.736 541.44v-1.216h-1.216l1.216 1.216zM272.96 601.664v-1.216h-1.216l1.216 1.216zM333.248 661.888v-1.216h-1.216l1.216 1.216zM393.472 722.112v-1.216h-1.216l1.216 1.216zM453.696 782.336v-1.216h-1.216l1.216 1.216zM577.92 781.184h-3.712v3.84l3.712-3.84zM636.992 720.896h-2.56v2.624l2.56-2.624zM512.704 841.408l3.072 3.072 3.008-3.072h-6.080zM92.288 233.472v5.632h5.632l-5.632-5.632zM30.144-4.8v301.952l120.896 60.224v-362.176h-120.896zM272.896-4.992v423.040l58.368 60.224 62.528-60.224v-423.040h-120.896zM512-5.184v423.488l60.544-60.672 60.544 60.672-0.192-423.488h-120.896zM752.96-5.184v483.776l120.896 60.224v-544h-120.896zM30.144 538.56l301.184 301.184 240.96-242.816 361.408 363.392 60.224-52.544-421.632-429.376-240.96 240.96-301.184-301.376v120.704zM695.872 899.904l298.048 60.096-60.864-300.992-58.624-58.496v242.816l-238.144-4.736 59.584 61.312z" />
<glyph unicode="&#xf70b;" glyph-name="arrow-left" data-tags="arrow-left" d="M736 736l-96 96-384-384 384-384 96 96-288 288 288 288z" />
<glyph unicode="&#xf70c;" glyph-name="arrow-left-three" data-tags="arrow-left-three" d="M320 448l320 256v-512z" />
<glyph unicode="&#xf70d;" glyph-name="arrow-left-two" data-tags="arrow-left-two" d="M384 384l224-224-96-96-384 384 384 384 96-96-224-224h448.128c35.264 0 63.872-28.672 63.872-64 0-35.584-28.608-64-63.872-64h-448.128z" />
<glyph unicode="&#xf70e;" glyph-name="arrow-right" data-tags="arrow-right" d="M288 160l96-96 384 384-384 384-96-96 288-288-288-288z" />
<glyph unicode="&#xf70f;" glyph-name="arrow-right-three" data-tags="arrow-right-three" d="M704 448l-320 256v-512z" />
<glyph unicode="&#xf710;" glyph-name="arrow-right-two" data-tags="arrow-right-two" d="M640 512l-224 224 96 96 384-384-384-384-96 96 224 224h-448.128c-35.264 0-63.872 28.672-63.872 64 0 35.584 28.608 64 63.872 64h448.128z" />
<glyph unicode="&#xf711;" glyph-name="arrow-up" data-tags="arrow-up" d="M800 224l96 96-384 384-384-384 96-96 288 288 288-288z" />
<glyph unicode="&#xf712;" glyph-name="arrow-up-three" data-tags="arrow-up-three" d="M512 640l256-320h-512z" />
<glyph unicode="&#xf713;" glyph-name="arrow-up-two" data-tags="arrow-up-two" d="M448 576l-224-224-96 96 384 384 384-384-96-96-224 224v-448.128c0-35.264-28.672-63.872-64-63.872-35.584 0-64 28.608-64 63.872v448.128z" />
<glyph unicode="&#xf714;" glyph-name="attachment" data-tags="attachment" d="M576-57.536v-6.464h-128v6.464c-216.832 31.296-384 216.064-384 441.536v256c0 176.704 143.232 320 320 320 154.816 0 283.904-109.952 313.536-256h6.464v-320c0-106.048-85.952-192-192-192s-192 85.952-192 192v256c0 35.328 28.672 64 64 64s64-28.672 64-64v-256c0-35.328 28.672-64 64-64s64 28.672 64 64v320c0 0-41.344 128-192 128-106.048 0-192-85.952-192-192v-256c0-176.704 143.296-320 320-320v0c176.704 0 320 143.296 320 320v512c0 35.328 28.672 64 64 64s64-28.672 64-64v-512c0-225.472-167.168-410.24-384-441.536v0z" />
<glyph unicode="&#xf715;" glyph-name="attention" data-tags="attention" d="M512-64c-282.752 0-512 229.248-512 512s229.248 512 512 512c282.752 0 512-229.248 512-512s-229.248-512-512-512zM512 64c212.096 0 384 171.904 384 384s-171.904 384-384 384c-212.096 0-384-171.904-384-384s171.904-384 384-384zM448 704h128v-320h-128v320zM448 320h128v-128h-128v128z" />
<glyph unicode="&#xf716;" glyph-name="attention-two" data-tags="attention-two" d="M960-64h-896c-35.328 0-64 28.672-64 64v896c0 35.328 28.672 64 64 64h896c35.328 0 64-28.672 64-64v-896c0-35.328-28.672-64-64-64v0zM896 832h-768v-768h768v768zM448 704h128v-320h-128v320zM448 320h128v-128h-128v128z" />
<glyph unicode="&#xf717;" glyph-name="backward" data-tags="backward" d="M192 192h-127.872c-35.008 0-64.128 28.736-64.128 64.128v639.68c0 35.008 28.736 64.128 64.128 64.128h639.68c35.008 0 64.128-28.736 64.128-64.128v-127.872h-128v64h-512v-512h64v-128zM320.128 704h639.68c35.008 0 64.128-28.736 64.128-64.128v-639.68c0-35.008-28.736-64.128-64.128-64.128h-639.68c-35.008 0-64.128 28.736-64.128 64.128v639.68c0 35.008 28.736 64.128 64.128 64.128zM384 576v-512h512v512h-512z" />
<glyph unicode="&#xf718;" glyph-name="baidu-dmp" data-tags="baidu-dmp" d="M64.064 960h895.872c35.584 0 64.064-28.672 64.064-64.064v-895.872c0-35.584-28.672-64.064-64.064-64.064h-895.872c-35.584 0-64.064 28.672-64.064 64.064v895.872c0 35.584 28.672 64.064 64.064 64.064zM128 832v-768h768v768h-768zM448 768h128v-256h-128v256zM192 768h192v-256h-192v256zM256 704v-128h64v128h-64zM640 768h192v-256h-192v256zM704 704v-128h64v128h-64zM192 384h128v-256h-128v256zM384 384h192v-256h-192v256zM448 320v-128h64v128h-64zM640 384h192v-256h-192v256zM704 320v-128h64v128h-64z" />
<glyph unicode="&#xf719;" glyph-name="baidu-jingsuan" data-tags="baidu-jingsuan" d="M704 320h-128c0-35.328-28.672-64-64-64s-64 28.672-64 64h-128c0-106.048 85.952-192 192-192s192 85.952 192 192zM64.064 960h895.872c35.584 0 64.064-28.672 64.064-64.064v-895.872c0-35.584-28.672-64.064-64.064-64.064h-895.872c-35.584 0-64.064 28.672-64.064 64.064v895.872c0 35.584 28.672 64.064 64.064 64.064zM128 832v-768h768v768h-768zM576 768v-448h128v448h-128z" />
<glyph unicode="&#xf71a;" glyph-name="baidu-logo" data-tags="baidu-logo" d="M209.536 419.968c113.856 23.936 98.368 157.12 94.912 186.24-5.568 44.864-59.52 123.264-132.736 117.12-92.16-8.064-105.6-138.368-105.6-138.368-12.48-60.288 29.824-188.928 143.424-164.992v0zM420.864 643.264v0c62.912 0 113.664 70.848 113.664 158.4 0 87.488-50.816 158.336-113.664 158.336-62.784 0-113.728-70.848-113.728-158.336 0-87.552 50.944-158.4 113.728-158.4v0zM691.712 632.832v0c84.032-10.688 138.048 77.12 148.864 143.616 10.944 66.432-43.264 143.616-102.784 156.928-59.648 13.376-134.144-80.128-140.864-141.056-8.128-74.496 10.88-148.928 94.784-159.488v0zM1024.832 521.088v0c0 31.808-27.008 127.68-127.168 127.68-100.416 0-113.792-90.496-113.792-154.432 0-61.056 5.248-146.24 129.92-143.552s111.040 138.24 111.040 170.24v0zM897.664 241.664c0 0-130.048 98.432-205.952 204.928-102.912 156.928-249.152 93.056-297.984 13.248-48.704-79.808-124.544-130.24-135.36-143.616-10.88-13.184-157.056-90.368-124.608-231.424 32.384-140.928 146.368-138.24 146.368-138.24s83.968-8.064 181.44 13.248c97.408 21.12 181.376-5.312 181.376-5.312s227.712-74.624 289.92 69.056c62.272 143.616-35.136 218.176-35.136 218.176z" />
<glyph unicode="&#xf71b;" glyph-name="baidu-tongji" data-tags="baidu-tongji" d="M896 448.896v-384.896h-768v768h768v-300.864l-0.704 44.416-126.016 128-128-256-129.28 128-124.736-256-129.984 128-129.28-192 1.344-127.744 129.984 193.984 128-128.064 126.016 253.888 128-128 126.016 256 128.64-126.656zM64.064 960c-35.392 0-64.064-28.48-64.064-64.064v-895.872c0-35.392 28.48-64.064 64.064-64.064h895.872c35.392 0 64.064 28.48 64.064 64.064v895.872c0 35.392-28.48 64.064-64.064 64.064h-895.872z" />
<glyph unicode="&#xf71c;" glyph-name="book" data-tags="book" d="M960 128l-448-192-448 192c-35.328 0-64 28.672-64 64v704c0 35.328 28.672 64 64 64h64v-27.456l384-164.544 384 164.544v27.456h64c35.328 0 64-28.672 64-64v-704c0-35.328-28.672-64-64-64v0zM128 256l320-160v565.312l-320 106.688v-512zM896 768l-320-106.688v-565.312l320 160v512z" />
<glyph unicode="&#xf71d;" glyph-name="browser" data-tags="browser" d="M960-64h-896c-35.328 0-64 28.672-64 64v896c0 35.328 28.672 64 64 64h896c35.328 0 64-28.672 64-64v-896c0-35.328-28.672-64-64-64v0zM896 832h-768v-192h768v192zM896 512h-768v-448h768v448zM256 704h-64v64h64v-64zM384 704h-64v64h64v-64zM832 704h-384v64h384v-64z" />
<glyph unicode="&#xf71e;" glyph-name="calculator" data-tags="calculator" d="M896-64h-768c-35.328 0-64 28.672-64 64v896c0 35.328 28.672 64 64 64h768c35.328 0 64-28.672 64-64v-896c0-35.328-28.672-64-64-64v0zM448 64h128v128h-128v-128zM448 256h128v128h-128v-128zM448 448h128v128h-128v-128zM192 64h128v128h-128v-128zM192 256h128v128h-128v-128zM192 448h128v128h-128v-128zM832 832h-640v-128h640v128zM832 576h-128v-128h128v128zM832 384h-128v-128h128v128zM832 192h-128v-128h128v128z" />
<glyph unicode="&#xf71f;" glyph-name="calendar" data-tags="calendar" d="M960-64h-896c-35.328 0-64 28.672-64 64v896c0 35.328 28.672 64 64 64h64v-192h256v192h256v-192h256v192h64c35.328 0 64-28.672 64-64v-896c0-35.328-28.672-64-64-64v0zM896 640h-768v-576h768v576zM384 384h-128v128h128v-128zM384 192h-128v128h128v-128zM576 384h-128v128h128v-128zM576 192h-128v128h128v-128zM768 384h-128v128h128v-128zM768 192h-128v128h128v-128zM704 960h128v-128h-128v128zM192 960h128v-128h-128v128z" />
<glyph unicode="&#xf720;" glyph-name="calendar-two" data-tags="calendar-two" d="M640 832v-64.384c0-35.136 28.352-63.616 64.576-63.616h126.784c35.648 0 64.576 28.672 64.576 63.616v64.384h63.936c35.584 0 64.064-28.864 64.064-64.448v-767.104c0-35.648-28.672-64.448-64.064-64.448h-895.872c-35.584 0-64.064 28.864-64.064 64.448v767.104c0 35.648 28.672 64.448 64.064 64.448h63.936v-64.384c0-35.136 28.352-63.616 64.576-63.616h126.784c35.648 0 64.576 28.672 64.576 63.616v64.384h256zM128 576v-512h768v512h-768zM256 960c-35.328 0-64-28.352-64-63.936v-64.128c0-35.328 28.416-63.936 64-63.936 35.328 0 64 28.352 64 63.936v64.128c0 35.328-28.416 63.936-64 63.936zM256 512v-128h128v128h-128zM448 512v-128h128v128h-128zM640 512v-128h128v128h-128zM256 320v-128h128v128h-128zM448 320v-128h128v128h-128zM768 960c-35.328 0-64-28.352-64-63.936v-64.128c0-35.328 28.416-63.936 64-63.936 35.328 0 64 28.352 64 63.936v64.128c0 35.328-28.416 63.936-64 63.936z" />
<glyph unicode="&#xf721;" glyph-name="camera" data-tags="camera" d="M960-64h-896c-35.328 0-64 28.672-64 64v704c0 35.328 28.672 64 64 64v64h128v-64h128v128c0 35.328 28.672 64 64 64h256c35.328 0 64-28.672 64-64v-128h256c35.328 0 64-28.672 64-64v-704c0-35.328-28.672-64-64-64v0zM576 832h-128v-64h128v64zM896 640h-768v-576h768v576zM512 576c106.048 0 192-85.952 192-192s-85.952-192-192-192c-106.048 0-192 85.952-192 192s85.952 192 192 192v0zM512 320c35.328 0 64 28.672 64 64s-28.672 64-64 64c-35.328 0-64-28.672-64-64s28.672-64 64-64v0z" />
<glyph unicode="&#xf722;" glyph-name="chart-area" data-tags="chart-area" d="M64-64h-64v1024h128v-896h896v-128h-960zM192 384v-256h832v768l-256-320-128 128-192-256-128 128-128-192z" />
<glyph unicode="&#xf723;" glyph-name="chart-bar" data-tags="chart-bar" d="M64-64h-64v1024h128v-896h896v-128h-960zM192 256v-128h320v128h-320zM192 448v-128h448v128h-448zM192 832v-128h576v128h-576zM192 640v-128h768v128h-768z" />
<glyph unicode="&#xf724;" glyph-name="chart-candlestick" data-tags="chart-candlestick" d="M640 192h-64v256h192v-256h-64v-64h-64v64zM448 832h-64v-256h64v-128h64v128h64v256h-64v128h-64v-128zM832 896h-64v-320h64v-256h64v256h64v320h-64v64h-64v-64zM640 704h64v-256h-64v256zM640 384v-128h64v128h-64zM256 768h64v-256h-64v256zM256 192h64v-64h-64v64zM192 512h192v-320h-192v320zM256 448v-192h64v192h-64zM0 960h128v-1024h-128v1024zM0 64h1024v-128h-1024v128z" />
<glyph unicode="&#xf725;" glyph-name="chart-circular" data-tags="chart-circular" d="M956.992 770.496c42.368-65.152 67.008-142.976 67.008-226.496 0-99.968-35.264-191.744-94.016-263.424v0l-91.136 91.136c35.904 48.064 57.216 107.712 57.216 172.288 0 48-11.712 93.248-32.512 132.992l93.504 93.504zM871.424 865.984c-71.744 58.752-163.456 94.016-263.424 94.016s-191.744-35.264-263.424-94.016l91.136-91.136c48.064 35.904 107.712 57.216 172.288 57.216s124.224-21.248 172.288-57.216l91.136 91.136zM834.496 195.008c-65.152-42.368-142.976-67.008-226.496-67.008-229.76 0-416 186.24-416 416 0 83.52 24.64 161.344 67.008 226.496l93.504-93.504c-20.736-39.808-32.512-85.056-32.512-132.992 0-159.040 128.96-288 288-288 48 0 93.248 11.712 132.992 32.512l93.504-93.504zM64-64h-64v1024h128v-896h896v-128h-960zM608 384c88.384 0 160 71.616 160 160s-71.616 160-160 160c-88.384 0-160-71.616-160-160s71.616-160 160-160z" />
<glyph unicode="&#xf726;" glyph-name="chart-discrete" data-tags="chart-discrete" d="M64-64h-64v1024h128v-896h896v-128h-960zM320 192c35.328 0 64 28.672 64 64s-28.672 64-64 64c-35.328 0-64-28.672-64-64s28.672-64 64-64zM640 256c35.328 0 64 28.672 64 64s-28.672 64-64 64c-35.328 0-64-28.672-64-64s28.672-64 64-64zM480 448c52.992 0 96 43.008 96 96s-43.008 96-96 96c-52.992 0-96-43.008-96-96s43.008-96 96-96zM832 512c70.72 0 128 57.28 128 128s-57.28 128-128 128c-70.72 0-128-57.28-128-128s57.28-128 128-128z" />
<glyph unicode="&#xf727;" glyph-name="chart-histogram" data-tags="chart-histogram" d="M64-64h-64v1024h128v-896h896v-128h-960zM192 448v-320h128v320h-128zM384 576v-448h128v448h-128zM576 704v-576h128v576h-128zM768 896v-768h128v768h-128z" />
<glyph unicode="&#xf728;" glyph-name="chart-line" data-tags="chart-line" d="M64-64h-64v1024h128v-896h896v-128h-960zM192 448v-128l128 192 128-128 192 256 128-128 256 320v128l-256-320-128 128-192-256-128 128-128-192z" />
<glyph unicode="&#xf729;" glyph-name="chart-pie" data-tags="chart-pie" d="M960 512c0-212.096-171.904-384-384-384s-384 171.904-384 384c0 212.096 171.904 384 384 384v-384h384zM64-64h-64v1024h128v-896h896v-128h-960zM954.688 576c-27.008 160.832-153.92 287.744-314.688 314.688v-314.688h314.688z" />
<glyph unicode="&#xf72a;" glyph-name="chat-two" data-tags="chat-two" d="M196.416 192h-4.416v-256l288 192h128c229.76 0 416 186.24 416 416s-186.24 416-416 416h-192c-229.76 0-416-186.24-416-416 0-148.864 78.848-278.464 196.416-352v0zM416 832h192c159.040 0 288-128.96 288-288s-128.96-288-288-288h-128l-160-96v113.664c-111.616 39.616-192 145.152-192 270.336 0 159.040 128.96 288 288 288v0z" />
<glyph unicode="&#xf72b;" glyph-name="checkbox" data-tags="checkbox" d="M0 895.936v-895.872c0-35.584 28.672-64.064 64.064-64.064h895.872c35.584 0 64.064 28.672 64.064 64.064v895.872c0 35.584-28.672 64.064-64.064 64.064h-895.872c-35.584 0-64.064-28.672-64.064-64.064zM128 832h768v-768h-768v768zM192 448l256-256 384 384-64 128-320-320-128 128-128-64z" />
<glyph unicode="&#xf72c;" glyph-name="city" data-tags="city" d="M64.192 960h319.616c36.16 0 64.192-28.672 64.192-64.064v-895.872c0-35.584-28.736-64.064-64.192-64.064h-319.616c-36.16 0-64.192 28.672-64.192 64.064v895.872c0 35.584 28.736 64.064 64.192 64.064zM64 832v-128h128v128h-128zM256 832v-128h128v128h-128zM64 576v-128h128v128h-128zM256 576v-128h128v128h-128zM64 320v-128h128v128h-128zM256 320v-128h128v128h-128zM576.192 64h319.616c36.16 0 64.192-28.672 64.192-64 0-35.584-28.736-64-64.192-64h-319.616c-36.16 0-64.192 28.672-64.192 64 0 35.584 28.736 64 64.192 64zM736 128c0 0-224 292.288-224 416s100.288 224 224 224c123.712 0 224-100.288 224-224s-224-416-224-416zM736 448c52.992 0 96 43.008 96 96s-43.008 96-96 96c-52.992 0-96-43.008-96-96s43.008-96 96-96z" />
<glyph unicode="&#xf72d;" glyph-name="clipboard" data-tags="clipboard" d="M960-64h-896c-35.328 0-64 28.672-64 64v896c0 35.328 28.672 64 64 64h128v-128h-64v-768h768v768h-64v128h128c35.328 0 64-28.672 64-64v-896c0-35.328-28.672-64-64-64v0zM256 704h64v192h128v64h128v-64h128v-192h64v-512h-512v512zM576 832h-128v-64h128v64zM384 320h256v256h-256v-256z" />
<glyph unicode="&#xf72e;" glyph-name="clock" data-tags="clock" d="M512-64c-282.752 0-512 229.248-512 512s229.248 512 512 512c282.752 0 512-229.248 512-512s-229.248-512-512-512v0zM512 832c-212.096 0-384-171.904-384-384s171.904-384 384-384c212.096 0 384 171.904 384 384s-171.904 384-384 384v0zM448 384v320h128v-192h128v-128h-256z" />
<glyph unicode="&#xf72f;" glyph-name="cmd" data-tags="cmd" d="M800 512c-34.496 0-66.816 8.448-96 22.4v-172.8c29.184 13.952 61.504 22.4 96 22.4 123.712 0 224-100.288 224-224s-100.288-224-224-224c-123.712 0-224 100.288-224 224 0 11.072 2.176 21.44 3.84 32h-3.84v64h-128v-64h-3.84c1.664-10.56 3.84-20.928 3.84-32 0-123.712-100.288-224-224-224s-224 100.288-224 224c0 123.712 100.288 224 224 224 34.496 0 66.816-8.448 96-22.4v172.8c-29.184-13.952-61.504-22.4-96-22.4-123.712 0-224 100.288-224 224s100.288 224 224 224c123.712 0 224-100.288 224-224 0-11.008-2.176-21.44-3.84-32h3.84v-64h128v64h3.84c-1.664 10.56-3.84 20.992-3.84 32 0 123.712 100.288 224 224 224s224-100.288 224-224c0-123.712-100.288-224-224-224v0zM800 64c52.992 0 96 43.008 96 96s-43.008 96-96 96c-52.992 0-96-43.008-96-96s43.008-96 96-96v0zM224 832c-53.056 0-96-42.944-96-96s42.944-96 96-96 96 43.008 96 96c0 53.056-43.008 96-96 96v0zM224 256c-53.056 0-96-43.008-96-96s42.944-96 96-96c53.056 0 96 43.008 96 96s-43.008 96-96 96v0zM448 512v-128h128v128h-128zM800 832c-52.992 0-96-42.944-96-96s43.008-96 96-96 96 43.008 96 96c0 53.056-43.008 96-96 96v0z" />
<glyph unicode="&#xf730;" glyph-name="code" data-tags="code" d="M320 780.544h-128l-192-332.544 192-332.544h128l-192 332.544 192 332.544zM704 780.544h128l192-332.544-192-332.544h-128l192 332.544-192 332.544zM512 832l-128-768h128l128 768h-128z" />
<glyph unicode="&#xf731;" glyph-name="comments" data-tags="comments" d="M0 256v-64c0-35.328 28.672-64 64-64h128v-192l288 192h480c35.328 0 64 28.672 64 64v704c0 35.328-28.672 64-64 64h-896c-35.328 0-64-28.672-64-64v-640zM128 832h768v-576h-416l-160-96v96h-192v576zM704 384h64v128h-512v-128h448zM768 704h-512v-128h512v128z" />
<glyph unicode="&#xf732;" glyph-name="compose" data-tags="compose" d="M960-64h-896c-35.328 0-64 28.672-64 64v896c0 35.328 28.672 64 64 64h640l-128-128h-448v-768h768v448l128 128v-640c0-35.328-28.672-64-64-64v0zM256 192v192l576 576h64l128-128v-64l-576-576h-192zM544 416l352 352-64 64-352-352 64-64zM384 384l-64-64v-64h64l64 64-64 64z" />
<glyph unicode="&#xf733;" glyph-name="connect" data-tags="connect" d="M256 832c0-70.72-57.28-128-128-128s-128 57.28-128 128c0 70.72 57.28 128 128 128s128-57.28 128-128zM576 192c0-141.376-114.624-256-256-256s-256 114.624-256 256h128c0-70.72 57.28-128 128-128s128 57.28 128 128h128zM960 704c0 141.376-114.624 256-256 256s-256-114.624-256-256h128c0 70.72 57.28 128 128 128s128-57.28 128-128h128zM64 704h128v-512h-128v512zM448 704h128v-512h-128v512zM832 704h128v-512h-128v512zM1024 64c0-70.72-57.28-128-128-128s-128 57.28-128 128c0 70.72 57.28 128 128 128s128-57.28 128-128z" />
<glyph unicode="&#xf734;" glyph-name="cube" data-tags="cube" d="M0 704v-576l448-128v576l-448 128zM960 704v-576l-448-128v576l448 128zM1.984 830.016l-1.984-62.016 448.128-128h63.872l448.128 126.016v65.984l-448.128 128h-64l-446.016-129.984z" />
<glyph unicode="&#xf735;" glyph-name="cut-out" data-tags="cut-out" d="M704 768h128v-832h-128v832zM192 255.488h832v-127.744h-832v127.744zM0 767.488h832v-127.744h-832v127.744zM192 957.44h128v-765.44h-128v765.44z" />
<glyph unicode="&#xf736;" glyph-name="dashboard" data-tags="dashboard" d="M512-64c-282.752 0-512 229.248-512 512s229.248 512 512 512c282.752 0 512-229.248 512-512s-229.248-512-512-512zM512 64c212.096 0 384 171.904 384 384s-171.904 384-384 384c-212.096 0-384-171.904-384-384s171.904-384 384-384zM896 448c0-212.096-171.904-384-384-384s-384 171.904-384 384h128c0-141.376 114.624-256 256-256s256 114.624 256 256h128zM512 256c35.328 0 64 28.672 64 64s-28.672 384-64 384c-35.328 0-64-348.672-64-384s28.672-64 64-64zM192 576v-64h64v64h-64zM320 704v-64h64v64h-64zM640 704v-64h64v64h-64zM768 576v-64h64v64h-64z" />
<glyph unicode="&#xf737;" glyph-name="data-all" data-tags="data-all" d="M955.52 544c43.584-28.224 68.48-61.056 68.48-96 0-106.048-229.248-192-512-192s-512 85.952-512 192c0 34.944 24.96 67.776 68.48 96 88.512-57.408 254.016-96 443.52-96s354.944 38.592 443.52 96v0zM955.52 288c43.584-28.224 68.48-61.056 68.48-96 0-106.048-229.248-192-512-192s-512 85.952-512 192c0 34.944 24.96 67.776 68.48 96 88.512-57.408 254.016-96 443.52-96s354.944 38.592 443.52 96v0zM512 512c282.752 0 512 85.952 512 192s-229.248 192-512 192c-282.752 0-512-85.952-512-192s229.248-192 512-192z" />
<glyph unicode="&#xf738;" glyph-name="data-manage" data-tags="data-manage" d="M702.784 42.56c94.080 44.352 170.24 120.512 214.656 214.656v0c-7.040-0.768-14.208-1.216-21.44-1.216-39.424 0-76.16 11.904-106.624 32.32-28.16-48.832-68.864-89.536-117.696-117.696 20.416-30.528 32.32-67.2 32.32-106.624 0-7.232-0.384-14.4-1.216-21.44v0zM321.216 42.56c-94.080 44.352-170.24 120.512-214.656 214.656 7.040-0.768 14.208-1.216 21.44-1.216 39.424 0 76.16 11.904 106.624 32.32 28.16-48.832 68.864-89.536 117.696-117.696-20.416-30.528-32.32-67.2-32.32-106.624 0-7.232 0.384-14.4 1.216-21.44v0zM702.784 853.44c94.080-44.352 170.24-120.512 214.656-214.656v0c-7.040 0.768-14.208 1.216-21.44 1.216-39.424 0-76.16-11.904-106.624-32.32-28.16 48.832-68.864 89.536-117.696 117.696 20.416 30.528 32.32 67.2 32.32 106.624 0 7.232-0.384 14.4-1.216 21.44v0zM321.216 853.44c-94.080-44.352-170.24-120.512-214.656-214.656v0c7.040 0.768 14.208 1.216 21.44 1.216 39.424 0 76.16-11.904 106.624-32.32 28.16 48.832 68.864 89.536 117.696 117.696-20.416 30.528-32.32 67.2-32.32 106.624 0 7.232 0.384 14.4 1.216 21.44v0zM128 320c70.72 0 128 57.28 128 128s-57.28 128-128 128c-70.72 0-128-57.28-128-128s57.28-128 128-128zM896 320c70.72 0 128 57.28 128 128s-57.28 128-128 128c-70.72 0-128-57.28-128-128s57.28-128 128-128zM512 704c70.72 0 128 57.28 128 128s-57.28 128-128 128c-70.72 0-128-57.28-128-128s57.28-128 128-128zM512 320c70.72 0 128 57.28 128 128s-57.28 128-128 128c-70.72 0-128-57.28-128-128s57.28-128 128-128zM512-64c70.72 0 128 57.28 128 128s-57.28 128-128 128c-70.72 0-128-57.28-128-128s57.28-128 128-128z" />
<glyph unicode="&#xf739;" glyph-name="data-one" data-tags="data-one" d="M955.52 544c43.584-28.224 68.48-61.056 68.48-96 0-106.048-229.248-192-512-192s-512 85.952-512 192c0 34.944 24.96 67.776 68.48 96 25.088-16.256 56.448-31.040 92.736-43.84-21.312-15.936-33.216-33.6-33.216-52.16 0-70.72 171.904-128 384-128s384 57.28 384 128c0 18.56-11.84 36.224-33.216 52.16 36.288 12.8 67.584 27.584 92.736 43.84v0zM955.52 288c43.584-28.224 68.48-61.056 68.48-96 0-106.048-229.248-192-512-192s-512 85.952-512 192c0 34.944 24.96 67.776 68.48 96 25.088-16.256 56.448-31.040 92.736-43.84-21.312-15.936-33.216-33.6-33.216-52.16 0-70.72 171.904-128 384-128s384 57.28 384 128c0 18.56-11.84 36.224-33.216 52.16 36.288 12.8 67.584 27.584 92.736 43.84v0zM512 512c282.752 0 512 85.952 512 192s-229.248 192-512 192c-282.752 0-512-85.952-512-192s229.248-192 512-192z" />
<glyph unicode="&#xf73a;" glyph-name="data-source-manage" data-tags="data-source-manage" d="M955.52 544v0c-25.088-16.256-56.448-31.040-92.736-43.84 21.312-15.936 33.216-33.6 33.216-52.16 0-70.72-171.904-128-384-128s-384 57.28-384 128c0 18.56 11.84 36.224 33.216 52.16-36.288 12.8-67.584 27.584-92.736 43.84-43.584-28.224-68.48-61.056-68.48-96 0-106.048 229.248-192 512-192s512 85.952 512 192c0 34.944-24.96 67.776-68.48 96zM955.52 288v0c-25.088-16.256-56.448-31.040-92.736-43.84 21.312-15.936 33.216-33.6 33.216-52.16 0-70.72-171.904-128-384-128s-384 57.28-384 128c0 18.56 11.84 36.224 33.216 52.16-36.288 12.8-67.584 27.584-92.736 43.84-43.584-28.224-68.48-61.056-68.48-96 0-106.048 229.248-192 512-192s512 85.952 512 192c0 34.944-24.96 67.776-68.48 96zM512 512c-282.752 0-512 85.952-512 192s229.248 192 512 192c282.752 0 512-85.952 512-192s-229.248-192-512-192zM512 576c212.096 0 384 57.28 384 128s-171.904 128-384 128c-212.096 0-384-57.28-384-128s171.904-128 384-128z" />
<glyph unicode="&#xf73b;" glyph-name="data-three" data-tags="data-three" d="M512 512c-282.752 0-512 85.952-512 192s229.248 192 512 192c282.752 0 512-85.952 512-192s-229.248-192-512-192zM512 576c212.096 0 384 57.28 384 128s-171.904 128-384 128c-212.096 0-384-57.28-384-128s171.904-128 384-128zM955.52 544c43.584-28.224 68.48-61.056 68.48-96 0-106.048-229.248-192-512-192s-512 85.952-512 192c0 34.944 24.96 67.776 68.48 96 25.088-16.256 56.448-31.040 92.736-43.84-21.312-15.936-33.216-33.6-33.216-52.16 0-70.72 171.904-128 384-128s384 57.28 384 128c0 18.56-11.84 36.224-33.216 52.16 36.288 12.8 67.584 27.584 92.736 43.84zM955.52 288c43.584-28.224 68.48-61.056 68.48-96 0-106.048-229.248-192-512-192s-512 85.952-512 192c0 34.944 24.96 67.776 68.48 96 88.512-57.408 254.016-96 443.52-96s354.944 38.592 443.52 96z" />
<glyph unicode="&#xf73c;" glyph-name="data-two" data-tags="data-two" d="M955.52 544v0c-88.512-57.408-254.016-96-443.52-96s-354.944 38.592-443.52 96c-43.584-28.224-68.48-61.056-68.48-96 0-106.048 229.248-192 512-192s512 85.952 512 192c0 34.944-24.96 67.776-68.48 96zM955.52 288v0c-25.088-16.256-56.448-31.040-92.736-43.84 21.312-15.936 33.216-33.6 33.216-52.16 0-70.72-171.904-128-384-128s-384 57.28-384 128c0 18.56 11.84 36.224 33.216 52.16-36.288 12.8-67.584 27.584-92.736 43.84-43.584-28.224-68.48-61.056-68.48-96 0-106.048 229.248-192 512-192s512 85.952 512 192c0 34.944-24.96 67.776-68.48 96zM512 512c-282.752 0-512 85.952-512 192s229.248 192 512 192c282.752 0 512-85.952 512-192s-229.248-192-512-192zM512 576c212.096 0 384 57.28 384 128s-171.904 128-384 128c-212.096 0-384-57.28-384-128s171.904-128 384-128z" />
<glyph unicode="&#xf73d;" glyph-name="data-upload" data-tags="data-upload" d="M64.064 960h895.872c35.584 0 64.064-28.672 64.064-64.064v-895.872c0-35.584-28.672-64.064-64.064-64.064h-895.872c-35.584 0-64.064 28.672-64.064 64.064v895.872c0 35.584 28.672 64.064 64.064 64.064zM128 832v-768h768v768h-768zM448 768h64v-256h-64v256zM640 512h128v-384h-128v384zM192 768h192v-256h-192v256zM256 704v-128h64v128h-64zM192 384h64v-256h-64v256zM320 384h192v-256h-192v256zM384 320v-128h64v128h-64zM577.28 576l126.72 192 128-194.24v-61.76h-256l1.28 64z" />
<glyph unicode="&#xf73e;" glyph-name="delete" data-tags="delete" d="M767.936 832h192c35.584 0 64.064-28.672 64.064-64 0-35.584-28.672-64-64.064-64h-63.936v-703.552c0-35.648-28.736-64.448-64.128-64.448h-639.68c-35.008 0-64.128 28.864-64.128 64.448v703.552h-63.936c-35.584 0-64.064 28.672-64.064 64 0 35.584 28.672 64 64.064 64h255.936v63.424c0 36.224 28.416 64.576 63.424 64.576h257.152c34.56 0 63.424-28.928 63.424-64.576v-63.424h63.936zM384 832h256v64h-256v-64zM256 704v-640h512v640h-512zM384 576v-512h64v512h-64zM576 576v-512h64v512h-64z" />
<glyph unicode="&#xf73f;" glyph-name="delicious" data-tags="delicious" d="M960-64h-896c-35.328 0-64 28.672-64 64v896c0 35.328 28.672 64 64 64h896c35.328 0 64-28.672 64-64v-896c0-35.328-28.672-64-64-64v0zM896 448h-384v384h-384v-384h384v-384h384v384z" />
<glyph unicode="&#xf740;" glyph-name="delivery-channel" data-tags="delivery-channel" d="M41.088 246.72c-26.432 61.76-41.088 129.856-41.088 201.28 0 282.752 229.248 512 512 512s512-229.248 512-512c0-282.752-229.248-512-512-512-71.488 0-139.52 14.656-201.28 41.088 34.496 27.136 59.392 65.856 68.992 110.336 41.216-15.168 85.824-23.424 132.288-23.424 212.096 0 384 171.904 384 384s-171.904 384-384 384c-212.096 0-384-171.904-384-384 0-46.464 8.256-91.072 23.424-132.288-44.416-9.536-83.136-34.496-110.336-68.992v0zM512 192c141.376 0 256 114.624 256 256s-114.624 256-256 256c-141.376 0-256-114.624-256-256s114.624-256 256-256zM192 0c70.72 0 128 57.28 128 128s-57.28 128-128 128c-70.72 0-128-57.28-128-128s57.28-128 128-128z" />
<glyph unicode="&#xf741;" glyph-name="doc-key" data-tags="doc-key" d="M320-64v128h512v576h-192v192h-448v-384h-128v512h704v-64h64v-64h64v-64h64v-832h-640zM256 192h-128v-64h64v-64h-64v-64h64v-64h-128v256h-64v192h256v-192zM192 320h-128v-64h128v64z" />
<glyph unicode="&#xf742;" glyph-name="doc-lock" data-tags="doc-lock" d="M960 768v-832h-576v128h448v576h-192v192h-448v-448h-128v576h704v-64h64v-64h64v-64h64zM64 320h192v-128h64v-256h-320v256h64v128zM128 0h64v128h-64v-128zM128 192h64v64h-64v-64z" />
<glyph unicode="&#xf743;" glyph-name="doc-minus" data-tags="doc-minus" d="M960 768v-832h-896v1024h704v-64h64v-64h64v-64h64zM832 640h-192v192h-448v-768h640v576zM704 320h-384v128h384v-128z" />
<glyph unicode="&#xf744;" glyph-name="doc-plus" data-tags="doc-plus" d="M960 768v-832h-896v1024h704v-64h64v-64h64v-64h64zM832 640h-192v192h-448v-768h640v576zM448 576h128v-128h128v-128h-128v-128h-128v128h-128v128h128v128z" />
<glyph unicode="&#xf745;" glyph-name="doc-smash" data-tags="doc-smash" d="M832 64v128h128v-128h-128zM64 448h896v-192h-896v192zM640 320h192v64h-192v-64zM832 640h-192v192h-448v-320h-128v448h704v-64h64v-64h64v-64h64v-256h-128v128zM192 64h-128v128h128v-128zM384 0h-128v192h128v-192zM576-64h-128v256h128v-256zM768 0h-128v192h128v-192z" />
<glyph unicode="&#xf746;" glyph-name="doc-words" data-tags="doc-words" d="M64-64v1024h704v-64h64v-64h64v-64h64v-832h-896zM832 640h-192v192h-448v-768h640v576zM384 640h-128v64h128v-64zM384 512h-128v64h128v-64zM384 384h-128v64h128v-64zM384 256h-128v64h128v-64zM384 128h-128v64h128v-64zM576 640h-128v64h128v-64zM576 512h-128v64h128v-64zM576 384h-128v64h128v-64zM576 256h-128v64h128v-64zM576 128h-128v64h128v-64zM768 512h-128v64h128v-64zM768 384h-128v64h128v-64zM768 256h-128v64h128v-64zM768 128h-128v64h128v-64z" />
<glyph unicode="&#xf747;" glyph-name="doc-write" data-tags="doc-write" d="M64-64h896v832h-64v64h-64v64h-64v64h-512v-64h64v-64h320v-192h192v-576h-640v384h-64v64h-64v-576zM128 896l-128-128v-64l448-448h192v192l-448 448h-64zM576 320h-64l-64 64 64 64 64-64v-64zM128 704l64 64 256-256-64-64-256 256z" />
<glyph unicode="&#xf748;" glyph-name="doc-zip" data-tags="doc-zip" d="M960 768v-832h-384v128h256v576h-192v192h-128v-64h-64v64h-256v-768h64v-128h-192v1024h704v-64h64v-64h64v-64h64zM576 640h-128v64h128v-64zM576 512h-128v64h128v-64zM576 384h-128v64h128v-64zM576 256h-128v64h128v-64zM512 192v-256h-192v256h64v64h64v-64h64zM384 64v-64h64v64h-64zM320 320v64h128v-64h-128zM320 448v64h128v-64h-128zM320 576v64h128v-64h-128zM320 704v64h128v-64h-128z" />
<glyph unicode="&#xf749;" glyph-name="dot" data-tags="dot" d="M512 576c-106.048 0-192-85.952-192-192s85.952-192 192-192c106.048 0 192 85.952 192 192s-85.952 192-192 192z" />
<glyph unicode="&#xf74a;" glyph-name="download" data-tags="download" d="M576 512v191.808c0 35.456-28.416 64.192-64 64.192-35.328 0-64-28.032-64-64.192v-191.808h-192l256-256 256 256h-192zM320 128v0c0 0.192 0 0.384 0 0.576v126.784c0 35.648-28.352 64.576-64.576 64.576h-126.784c-0.192 0-0.384 0-0.576 0v512h768v-512c-0.192 0-0.384 0-0.576 0h-126.784c-35.648 0-64.576-28.352-64.576-64.576v-126.784c0-0.192 0-0.384 0-0.576h-384zM64.064 960c-35.392 0-64.064-28.48-64.064-64.064v-895.872c0-35.392 28.48-64.064 64.064-64.064h895.872c35.392 0 64.064 28.48 64.064 64.064v895.872c0 35.392-28.48 64.064-64.064 64.064h-895.872z" />
<glyph unicode="&#xf74b;" glyph-name="download-success" data-tags="download-success" d="M320 128c0 0.192 0 0.384 0 0.576v126.784c0 35.648-28.352 64.576-64.576 64.576h-126.784c-0.192 0-0.384 0-0.576 0v512h768v-512c-0.192 0-0.384 0-0.576 0h-126.784c-35.648 0-64.576-28.352-64.576-64.576v-126.784c0-0.192 0-0.384 0-0.576h-384zM64.064 960c-35.392 0-64.064-28.48-64.064-64.064v-895.872c0-35.392 28.48-64.064 64.064-64.064h895.872c35.392 0 64.064 28.48 64.064 64.064v895.872c0 35.392-28.48 64.064-64.064 64.064h-895.872zM467.072 392.704c18.432-7.36 40.384-3.52 55.68 11.712l198.272 198.272c20.224 20.224 20.544 52.672 0.448 72.832-19.968 19.968-52.352 20.032-72.832-0.384l-181.568-181.568-91.072 91.072c-20.224 20.224-52.672 20.544-72.832 0.448-19.968-19.968-20.16-52.288 0.448-72.832l107.776-107.776c15.168-15.168 37.12-19.136 55.68-11.776z" />
<glyph unicode="&#xf74c;" glyph-name="drawing-board" data-tags="drawing-board" d="M1007.552 577.216c10.752-41.28 16.448-84.544 16.448-129.216 0-282.752-229.248-512-512-512s-512 229.248-512 512c0 282.752 229.248 512 512 512 162.176 0 306.752-75.392 400.576-193.088-5.44 0.704-10.944 1.088-16.576 1.088-70.72 0-128-57.28-128-128s57.28-128 128-128c47.872 0 89.6 26.304 111.552 65.216v0zM512 704c35.328 0 64 28.672 64 64s-28.672 64-64 64c-35.328 0-64-28.672-64-64s28.672-64 64-64zM256 512c35.328 0 64 28.672 64 64s-28.672 64-64 64c-35.328 0-64-28.672-64-64s28.672-64 64-64zM256 256c35.328 0 64 28.672 64 64s-28.672 64-64 64c-35.328 0-64-28.672-64-64s28.672-64 64-64zM512 64c35.328 0 64 28.672 64 64s-28.672 64-64 64c-35.328 0-64-28.672-64-64s28.672-64 64-64zM768 256c35.328 0 64 28.672 64 64s-28.672 64-64 64c-35.328 0-64-28.672-64-64s28.672-64 64-64z" />
<glyph unicode="&#xf74d;" glyph-name="edit" data-tags="edit" d="M109.184 301.184l485.632 485.632c24.704 24.704 73.728 45.184 108.928 45.184h3.072c34.752 0 84.096-20.352 109.248-45.504l37.056-36.992c25.536-25.472 44.928-74.112 44.224-109.504-0.704-35.584-21.568-84.224-46.528-109.184l-485.632-485.632c-24.704-24.704-74.112-45.184-109.824-45.184h-126.784c-36.224 0-64.576 28.928-64.576 64.576v126.784c0 36.224 20.224 84.864 45.184 109.824zM237.44 301.44c-25.088-25.088-25.408-65.408 0.064-90.944l36.992-36.992c25.152-25.152 66.176-24.768 90.944-0.064l421.12 421.12c25.088 25.088 25.408 65.408-0.064 90.944l-36.992 36.992c-25.152 25.152-66.176 24.768-90.944 0.064l-421.12-421.12zM576 640l128-128 64 64-128 128-64-64z" />
<glyph unicode="&#xf74e;" glyph-name="enter" data-tags="enter" d="M576 512c0.064 0 0.128 0 0.192 0h383.808v-511.936c0-35.584-28.864-64.064-64.448-64.064h-767.104c-35.648 0-64.448 28.672-64.448 64.064v895.872c0 35.584 28.864 64.064 64.448 64.064h767.104c35.648 0 64.448-28.672 64.448-64.064v-255.936h-128v192h-640v-768h640v320h-255.808c-0.064 0-0.128 0-0.192 0v-128l-256 192 256 192v-128z" />
<glyph unicode="&#xf74f;" glyph-name="expand" data-tags="expand" d="M960-64h-192c-35.328 0-64 28.672-64 64l82.176 82.176-210.56 210.56 91.648 91.648 210.56-210.56 82.176 82.176c35.328 0 64-28.672 64-64v-192c0-35.328-28.672-64-64-64v0zM960 640l-82.176 82.176-210.56-210.56-91.648 91.648 210.56 210.56-82.176 82.176c0 35.328 28.672 64 64 64h192c35.328 0 64-28.672 64-64v-192c0-35.328-28.672-64-64-64v0zM320 0c0-35.328-28.672-64-64-64h-192c-35.328 0-64 28.672-64 64v192c0 35.328 28.672 64 64 64l82.176-82.176 210.56 210.56 91.648-91.648-210.56-210.56 82.176-82.176zM356.736 511.616l-210.56 210.56-82.176-82.176c-35.328 0-64 28.672-64 64v192c0 35.328 28.672 64 64 64h192c35.328 0 64-28.672 64-64l-82.176-82.176 210.56-210.56-91.648-91.648z" />
<glyph unicode="&#xf750;" glyph-name="filiter" data-tags="filiter" d="M576 363.904v-347.904l-128-80v427.904c-137.344 95.744-448 321.536-448 404.096 0 106.048 229.248 192 512 192s512-85.952 512-192c0-82.624-310.656-308.352-448-404.096zM512 640c212.096 0 384 57.28 384 128s-171.904 128-384 128c-212.096 0-384-57.28-384-128s171.904-128 384-128z" />
<glyph unicode="&#xf751;" glyph-name="folder-off" data-tags="folder-off" d="M0 576v-512.128c0-35.264 28.48-63.872 64.064-63.872h895.872c35.392 0 64.064 28.544 64.064 63.872v512.128h-1024zM0 768v-128h1024v64c0 35.328-28.48 64-64.064 64h-959.936zM64.192 896c-35.456 0-64.192-28.416-64.192-64v-64h512l-35.392 70.72c-15.808 31.616-56.64 57.28-92.8 57.28h-319.616z" />
<glyph unicode="&#xf752;" glyph-name="folder-on" data-tags="folder-on" d="M0 576h1024v-512.128c0-35.264-28.672-63.872-64.064-63.872h-895.872c-35.584 0-64.064 28.608-64.064 63.872v512.128zM128 448v-320h768v320h-768zM0 768v-128h1024v64c0 35.328-28.48 64-64.064 64h-959.936zM64.192 896c-35.456 0-64.192-28.416-64.192-64v-64h512l-35.392 70.72c-15.808 31.616-56.64 57.28-92.8 57.28h-319.616z" />
<glyph unicode="&#xf753;" glyph-name="forbid" data-tags="forbid" d="M512-64c-282.752 0-512 229.248-512 512s229.248 512 512 512c282.752 0 512-229.248 512-512s-229.248-512-512-512zM512 64c212.096 0 384 171.904 384 384s-171.904 384-384 384c-212.096 0-384-171.904-384-384s171.904-384 384-384zM874.048 810.048c25.024-25.024 25.024-65.536 0-90.496l-633.536-633.536c-25.024-25.024-65.536-25.024-90.496 0s-25.024 65.536 0 90.496l633.536 633.536c25.024 25.024 65.536 25.024 90.496 0z" />
<glyph unicode="&#xf754;" glyph-name="fork-knife" data-tags="fork-knife" d="M896 0v459.776c-74.368 26.432-128 96.768-128 180.224v128c0 150.656 128 192 128 192h128v-960c0-35.328-28.672-64-64-64s-64 28.672-64 64zM384 576h-64v384h-128v-384h-64v384l-128-128v-320c0-35.584 28.544-64 63.808-64h128.192v-512h128v512h128.192c34.816 0 63.808 28.672 63.808 64v320l-128 128v-384z" />
<glyph unicode="&#xf755;" glyph-name="fork-spoon" data-tags="fork-spoon" d="M896 587.776v-587.776c0-35.328-28.672-64-64-64s-64 28.672-64 64v587.776c-74.368 26.432-128 96.768-128 180.224 0 106.048 85.952 192 192 192s192-85.952 192-192c0-83.456-53.568-153.792-128-180.224v0zM384 576h-64v384h-128v-384h-64v384l-128-128v-320c0-35.584 28.544-64 63.808-64h128.192v-512h128v512h128.192c34.816 0 63.808 28.672 63.808 64v320l-128 128v-384z" />
<glyph unicode="&#xf756;" glyph-name="forward" data-tags="forward" d="M256 128v-127.872c0-35.456 29.184-64.128 64.128-64.128h639.68c35.456 0 64.128 29.184 64.128 64.128v639.68c0 35.456-29.184 64.128-64.128 64.128h-127.872v-128h64v-512h-512v64h-128zM64.128 960h639.68c35.008 0 64.128-28.736 64.128-64.128v-639.68c0-35.008-28.736-64.128-64.128-64.128h-639.68c-35.008 0-64.128 28.736-64.128 64.128v639.68c0 35.008 28.736 64.128 64.128 64.128zM128 832v-512h512v512h-512z" />
<glyph unicode="&#xf757;" glyph-name="gallery" data-tags="gallery" d="M960 320h-512c-35.328 0-64 28.672-64 64v512c0 35.328 28.672 64 64 64h512c35.328 0 64-28.672 64-64v-512c0-35.328-28.672-64-64-64v0zM896 832h-384v-384h384v384zM128 64h384v128h128v-192c0-35.328-28.672-64-64-64h-512c-35.328 0-64 28.672-64 64v512c0 35.328 28.672 64 64 64h192v-128h-128v-384z" />
<glyph unicode="&#xf758;" glyph-name="gender" data-tags="gender" d="M714.368 866.88c11.456 17.472 31.168 29.12 53.632 29.12 22.784 0 42.624-11.712 53.952-29.376v0c3.712-2.432 7.232-5.248 10.432-8.512l89.664-89.664c25.6-25.6 25.408-65.92 0.448-90.944s-65.28-24.832-90.496 0v-173.568c110.4-28.416 192-128.64 192-247.936 0-141.376-114.624-256-256-256s-256 114.624-256 256c0 119.296 81.6 219.52 192 247.936v173.568c-25.664-25.216-65.664-24.832-90.496 0-25.152 25.152-24.832 65.728 0.448 90.944l89.664 89.664c3.392 3.392 6.976 6.272 10.816 8.768zM192 320v72.064c-110.4 28.416-192 128.64-192 247.936 0 141.376 114.624 256 256 256s256-114.624 256-256c0-119.296-81.6-219.52-192-247.936v0-72.064h64.576c34.56 0 63.424-28.672 63.424-64 0-35.584-28.416-64-63.424-64h-64.576v-128.192c0-34.816-28.672-63.808-64-63.808-35.584 0-64 28.544-64 63.808v128.192h-64.576c-34.56 0-63.424 28.672-63.424 64 0 35.584 28.416 64 63.424 64h64.576zM256 512c70.72 0 128 57.28 128 128s-57.28 128-128 128c-70.72 0-128-57.28-128-128s57.28-128 128-128zM768 128c70.72 0 128 57.28 128 128s-57.28 128-128 128c-70.72 0-128-57.28-128-128s57.28-128 128-128z" />
<glyph unicode="&#xf759;" glyph-name="gird-four" data-tags="gird-four" d="M64 960h320c35.328 0 64-28.672 64-64v-320c0-35.328-28.672-64-64-64h-320c-35.328 0-64 28.672-64 64v320c0 35.328 28.672 64 64 64zM640 960h320c35.328 0 64-28.672 64-64v-320c0-35.328-28.672-64-64-64h-320c-35.328 0-64 28.672-64 64v320c0 35.328 28.672 64 64 64zM64 384h320c35.328 0 64-28.672 64-64v-320c0-35.328-28.672-64-64-64h-320c-35.328 0-64 28.672-64 64v320c0 35.328 28.672 64 64 64zM640 384h320c35.328 0 64-28.672 64-64v-320c0-35.328-28.672-64-64-64h-320c-35.328 0-64 28.672-64 64v320c0 35.328 28.672 64 64 64z" />
<glyph unicode="&#xf75a;" glyph-name="gird-four-two" data-tags="gird-four-two" d="M64.192 960h319.616c36.16 0 64.192-28.736 64.192-64.192v-319.616c0-36.16-28.736-64.192-64.192-64.192h-319.616c-36.16 0-64.192 28.736-64.192 64.192v319.616c0 36.16 28.736 64.192 64.192 64.192zM128 832v-192h192v192h-192zM640.192 960h319.616c36.16 0 64.192-28.736 64.192-64.192v-319.616c0-36.16-28.736-64.192-64.192-64.192h-319.616c-36.16 0-64.192 28.736-64.192 64.192v319.616c0 36.16 28.736 64.192 64.192 64.192zM704 832v-192h192v192h-192zM64.192 384h319.616c36.16 0 64.192-28.736 64.192-64.192v-319.616c0-36.16-28.736-64.192-64.192-64.192h-319.616c-36.16 0-64.192 28.736-64.192 64.192v319.616c0 36.16 28.736 64.192 64.192 64.192zM128 256v-192h192v192h-192zM640.192 384h319.616c36.16 0 64.192-28.736 64.192-64.192v-319.616c0-36.16-28.736-64.192-64.192-64.192h-319.616c-36.16 0-64.192 28.736-64.192 64.192v319.616c0 36.16 28.736 64.192 64.192 64.192zM704 256v-192h192v192h-192z" />
<glyph unicode="&#xf75b;" glyph-name="google-plus" data-tags="google-plus" d="M960-64h-384v128h320v320h128v-384c0-35.328-28.672-64-64-64v0zM896 832h-320v128h384c35.328 0 64-28.672 64-64v-384h-128v320zM448 704h128v-192h192v-128h-192v-192h-128v192h-192v128h192v192zM128 512h-128v384c0 35.328 28.672 64 64 64h384v-128h-320v-320zM128 64h320v-128h-384c-35.328 0-64 28.672-64 64v384h128v-320z" />
<glyph unicode="&#xf75c;" glyph-name="grid" data-tags="grid" d="M960-64h-896c-35.328 0-64 28.672-64 64v896c0 35.328 28.672 64 64 64h896c35.328 0 64-28.672 64-64v-896c0-35.328-28.672-64-64-64v0zM896 832h-768v-768h768v768zM448 512h-192v192h192v-192zM448 192h-192v192h192v-192zM768 512h-192v192h192v-192zM768 192h-192v192h192v-192z" />
<glyph unicode="&#xf75d;" glyph-name="hearts" data-tags="hearts" d="M513.984 704c0 0-65.664 128-195.136 128-123.456 0-254.848-144-254.848-256 0-382.016 448-576 448-576s448 196.608 448 569.984c0 129.984-129.408 262.016-256.832 262.016-129.472 0-189.184-128-189.184-128zM689.984 704c78.656 0 152-38.016 152-128 0-258.496-328-448-328-448s-324.032 183.552-324.032 448c0 77.568 63.104 128 148.032 128s176-128 176-128c0 0 97.344 128 176 128z" />
<glyph unicode="&#xf75e;" glyph-name="hearts-full" data-tags="hearts-full" d="M513.984 704c0 0 59.712 128 189.184 128 127.424 0 256.832-132.032 256.832-262.016 0-373.376-448-569.984-448-569.984s-448 193.984-448 576c0 112 131.392 256 254.848 256 129.408 0 195.136-128 195.136-128v0z" />
<glyph unicode="&#xf75f;" glyph-name="help" data-tags="help" d="M512-64c-282.752 0-512 229.248-512 512s229.248 512 512 512c282.752 0 512-229.248 512-512s-229.248-512-512-512zM512 64c212.096 0 384 171.904 384 384s-171.904 384-384 384c-212.096 0-384-171.904-384-384s171.904-384 384-384zM325.952 597.888c9.152 21.504 21.952 40.192 38.464 55.936s36.288 28.096 59.584 36.928c23.296 8.832 50.752 13.248 79.488 13.248 113.344 0 190.976-57.152 190.976-144.512 0-72.64-65.984-93.44-94.016-114.944-17.344-13.312-33.344-33.024-33.344-62.016 0-35.008-23.936-62.464-59.264-62.464s-60.096 29.376-54.336 65.984c1.728 11.072 3.456 21.12 6.016 28.032 14.464 39.68 36.032 58.944 49.984 69.952 30.016 23.552 83.392 52.8 86.016 76.032 2.496 22.464-1.984 31.488-23.488 47.488-21.376 15.872-52.672 17.664-79.488 14.528-38.464-4.544-73.984-30.528-72.512-66.56 1.536-36.48-26.944-50.496-54.848-46.144-33.6 5.248-52.736 40.768-42.24 79.36 0.896 3.328 1.92 6.4 3.072 9.152zM572.48 193.792v-3.648c0-34.368-27.84-62.208-62.144-62.208h-3.648c-34.368 0-62.144 27.84-62.144 62.208v3.648c0 34.368 27.84 62.208 62.144 62.208h3.648c34.304 0 62.144-27.84 62.144-62.208z" />
<glyph unicode="&#xf760;" glyph-name="hit" data-tags="hit" d="M635.008-49.152c-39.424-9.728-80.64-14.848-123.072-14.848-282.752 0-512 229.248-512 512s229.248 512 512 512c282.752 0 512-229.248 512-512 0-42.432-5.184-83.648-14.848-123.008l-121.984 40.64c5.824 26.56 8.832 54.080 8.832 82.368 0 212.096-171.904 384-384 384s-384-171.904-384-384c0-212.096 171.904-384 384-384 28.288 0 55.872 3.072 82.368 8.832l40.64-121.984zM574.016 134.016c-20.032-3.968-40.768-6.016-62.016-6.016-176.704 0-320 143.296-320 320s143.296 320 320 320c176.704 0 320-143.296 320-320 0-21.184-2.048-41.92-6.016-62.016l-123.136 41.024c0.768 6.912 1.152 13.888 1.152 20.928 0 106.048-85.952 192-192 192s-192-85.952-192-192c0-106.048 85.952-192 192-192 7.104 0 14.080 0.384 20.928 1.152l41.024-123.136zM640 448c0 70.72-57.28 128-128 128s-128-57.28-128-128c0-70.72 57.28-128 128-128l-64 192 192-64zM512 448l512-256v-256h-256l-256 512zM768 192l64-256h192v192l-256 64z" />
<glyph unicode="&#xf761;" glyph-name="home" data-tags="home" d="M384 63.616l-128 0.384v384l-97.984-1.408 353.984 302.208 352-302.080-96-0.128v-384l-128 0.384v257.088h-256v-256.384zM1024 446.592l-512 449.408-512-449.408-0.256-62.016 128.256-0.576v-384h768v384h128.256l-0.256 62.592z" />
<glyph unicode="&#xf762;" glyph-name="hyperlink" data-tags="hyperlink" d="M640 960h128l256-256v-128l-256-256-64 128 192 192-192 192-192-192-128 64 256 256zM384-64h-128l-256 256v128l256 256 64-128-192-192 192-192 192 192 128-64-256-256zM320 320l64-64 320 320-64 64-320-320z" />
<glyph unicode="&#xf763;" glyph-name="hyperlink-no" data-tags="hyperlink-no" d="M640 960h128l256-256v-128l-256-256-64 128 192 192-192 192-192-192-128 64 256 256zM384-64h-128l-256 256v128l256 256 64-128-192-192 192-192 192 192 128-64-256-256zM256 256l64-64 128 128v128l-192-192zM576 576v-128l192 192-64 64-128-128z" />
<glyph unicode="&#xf764;" glyph-name="img" data-tags="img" d="M64.064 960h895.872c35.584 0 64.064-28.672 64.064-64.064v-895.872c0-35.584-28.672-64.064-64.064-64.064h-895.872c-35.584 0-64.064 28.672-64.064 64.064v895.872c0 35.584 28.672 64.064 64.064 64.064zM128 832v-768h768v768h-768zM448 256c-29.888 0-81.984 128-128 128s-128-256-128-256h640c0 0-120 384-192 384s-162.112-256-192-256zM352 512c52.992 0 96 43.008 96 96s-43.008 96-96 96c-52.992 0-96-43.008-96-96s43.008-96 96-96z" />
<glyph unicode="&#xf765;" glyph-name="in" data-tags="in" d="M960-64h-896c-35.328 0-64 28.672-64 64v448c0 35.328 28.672 64 64 64s64-28.672 64-64v-384h768v384c0 35.328 28.672 64 64 64s64-28.672 64-64v-448c0-35.328-28.672-64-64-64v0zM512 256l-256 256h192v384c0 35.328 28.672 64 64 64s64-28.672 64-64v-384h192l-256-256z" />
<glyph unicode="&#xf766;" glyph-name="inbox" data-tags="inbox" d="M1024 64v-64c0-35.328-28.672-64-64-64h-896c-35.328 0-64 28.672-64 64v896c0 35.328 28.672 64 64 64h896c35.328 0 64-28.672 64-64v-832zM896 832h-768v-576h192v-192h384v192h192v576zM256 512h512v-128h-512v128zM256 704h512v-128h-512v128z" />
<glyph unicode="&#xf767;" glyph-name="info" data-tags="info" d="M512-64c-282.752 0-512 229.248-512 512s229.248 512 512 512c282.752 0 512-229.248 512-512s-229.248-512-512-512zM512 64c212.096 0 384 171.904 384 384s-171.904 384-384 384c-212.096 0-384-171.904-384-384s171.904-384 384-384zM448 512h128v-320h-128v320zM448 704h128v-128h-128v128zM512 320h128v-128h-128v128z" />
<glyph unicode="&#xf768;" glyph-name="info-two" data-tags="info-two" d="M960-64h-896c-35.328 0-64 28.672-64 64v896c0 35.328 28.672 64 64 64h896c35.328 0 64-28.672 64-64v-896c0-35.328-28.672-64-64-64v0zM896 832h-768v-768h768v768zM576 320h64v-128h-192v320h128v-192zM448 704h128v-128h-128v128z" />
<glyph unicode="&#xf769;" glyph-name="instagram" data-tags="instagram" d="M1024 64v-64c0-35.328-28.672-64-64-64h-896c-35.328 0-64 28.672-64 64v896c0 35.328 28.672 64 64 64h896c35.328 0 64-28.672 64-64v-832zM512 576c-117.824 0-128-128-128-128s-3.712-128 128-128c131.712 0 128 128 128 128s-10.112 128-128 128v0zM896 832h-192v-192h192v192zM896 448v0 64h-137.024c5.312-20.544 9.024-41.728 9.024-64v0c0-141.376-114.624-256-256-256s-256 114.624-256 256c0 22.208 3.712 43.456 9.024 64h-137.024v-448h768v384z" />
<glyph unicode="&#xf76a;" glyph-name="ipad" data-tags="ipad" d="M960-64h-896c-35.328 0-64 28.672-64 64v896c0 35.328 28.672 64 64 64h896c35.328 0 64-28.672 64-64v-896c0-35.328-28.672-64-64-64v0zM896 832h-768v-640h768v640z" />
<glyph unicode="&#xf76b;" glyph-name="iphone" data-tags="iphone" d="M832-64h-640c-35.328 0-64 28.672-64 64v896c0 35.328 28.672 64 64 64h640c35.328 0 64-28.672 64-64v-896c0-35.328-28.672-64-64-64v0zM768 256v576h-512v-640h512v64z" />
<glyph unicode="&#xf76c;" glyph-name="keywords" data-tags="keywords" d="M688.192 285.504l114.688 10.752-281.728 198.4 30.976-343.168 72.96 98.56 96.384-166.912 62.656 36.16-95.936 166.144zM448 192h-383.936c-35.584 0-64.064 28.608-64.064 63.872v448.32c0 35.264 28.672 63.872 64.064 63.872h895.872c35.584 0 64.064-28.608 64.064-63.872v-448.32c0-35.264-28.672-63.872-64.064-63.872h-127.936v128h64v320h-768v-320h320v-128zM192 576v-192h64v192h-64z" />
<glyph unicode="&#xf76d;" glyph-name="light-bulb" data-tags="light-bulb" d="M704 296.128v-40.128c0-35.328-28.672-64-64-64h-256c-35.328 0-64 28.672-64 64v40.128c-113.536 58.432-192 175.424-192 311.872 0 194.432 157.568 352 352 352h64c194.368 0 352-157.568 352-352 0-136.448-78.464-253.44-192-311.872v0zM544 832h-64c-123.712 0-224-100.288-224-224 0-112.768 83.584-205.12 192-220.8v-67.2h128v67.2c108.416 15.68 192 108.032 192 220.736 0 123.776-100.288 224.064-224 224.064v0zM416 128h192c17.664 0 32-14.336 32-32s-14.336-32-32-32h-192c-17.664 0-32 14.336-32 32s14.336 32 32 32v0zM480 0h64c17.664 0 32-14.336 32-32s-14.336-32-32-32h-64c-17.664 0-32 14.336-32 32s14.336 32 32 32v0z" />
<glyph unicode="&#xf76e;" glyph-name="list" data-tags="list" d="M960-64h-896c-35.328 0-64 28.672-64 64v896c0 35.328 28.672 64 64 64h896c35.328 0 64-28.672 64-64v-896c0-35.328-28.672-64-64-64v0zM896 832h-768v-768h768v768zM512 320h256v-128h-256v128zM512 512h256v-128h-256v128zM512 704h256v-128h-256v128zM256 320h128v-128h-128v128zM256 512h128v-128h-128v128zM256 704h128v-128h-128v128z" />
<glyph unicode="&#xf76f;" glyph-name="list-two" data-tags="list-two" d="M960-64h-896c-35.328 0-64 28.672-64 64v896c0 35.328 28.672 64 64 64h896c35.328 0 64-28.672 64-64v-896c0-35.328-28.672-64-64-64v0zM896 832h-768v-768h768v768zM256 320h512v-128h-512v128zM256 512h512v-128h-512v128zM256 704h512v-128h-512v128z" />
<glyph unicode="&#xf770;" glyph-name="logout" data-tags="logout" d="M128 512v383.552c0 35.648 28.736 64.448 64.128 64.448h639.68c35.008 0 64.128-28.864 64.128-64.448v-767.104c0-35.648-28.736-64.448-64.128-64.448h-255.872v-63.744c0-35.136-27.456-56.448-61.376-46.72l-386.624 110.464v448zM576 192h192v640h-436.352l183.040-57.536c33.984-10.688 61.376-48.064 61.376-83.584v-498.944zM448 448v-64h64v64h-64z" />
<glyph unicode="&#xf771;" glyph-name="mail" data-tags="mail" d="M128 608l384-288 384 288v-416h-768v416zM64.064 832c-35.392 0-64.064-29.184-64.064-64.128v-639.68c0-35.456 28.48-64.128 64.064-64.128h895.872c35.392 0 64.064 29.184 64.064 64.128v639.68c0 35.456-28.48 64.128-64.064 64.128h-895.872zM512 448l-384 256h768l-384-256z" />
<glyph unicode="&#xf772;" glyph-name="maximize" data-tags="maximize" d="M960 640l-82.176 82.176-210.56-210.56-91.648 91.648 210.56 210.56-82.176 82.176c0 35.328 28.672 64 64 64h192c35.328 0 64-28.672 64-64v-192c0-35.328-28.672-64-64-64v0zM320 0c0-35.328-28.672-64-64-64h-192c-35.328 0-64 28.672-64 64v192c0 35.328 28.672 64 64 64l82.176-82.176 210.56 210.56 91.648-91.648-210.56-210.56 82.176-82.176z" />
<glyph unicode="&#xf773;" glyph-name="message" data-tags="message" d="M64.064 896h895.872c35.584 0 64.064-28.544 64.064-63.744v-576.576c0-35.264-28.544-63.744-63.808-63.744h-448.192l-330.624-220.416c-29.376-19.584-53.376-6.656-53.376 28.992v191.424h-64c-35.584 0-64 28.544-64 63.744v576.576c0 35.264 28.672 63.744 64.064 63.744zM128 768v-448h128v-128l192 128h448v448h-768zM224 608h128v-128h-128v128zM448 608h128v-128h-128v128zM672 608h128v-128h-128v128z" />
<glyph unicode="&#xf774;" glyph-name="minus" data-tags="minus" d="M256 512h512c35.328 0 64-28.672 64-64s-28.672-64-64-64h-512c-35.328 0-64 28.672-64 64s28.672 64 64 64z" />
<glyph unicode="&#xf775;" glyph-name="modify" data-tags="modify" d="M960 512l-128-128v-320h-640v768h320.448l128.96 128h-512.96c-35.584 0-64.448-28.48-64.448-64.064v-895.872c0-35.392 28.8-64.064 64.448-64.064h767.104c35.584 0 64.448 28.48 64.448 64.064v511.936zM301.44 493.44l421.12 421.12c24.704 24.704 73.984 45.44 109.184 45.44h3.072c34.752 0 84.096-20.352 109.248-45.504l37.056-36.992c25.536-25.472 44.928-74.112 44.224-109.504-0.704-35.584-21.632-84.352-46.784-109.44l-421.12-421.12c-24.704-24.704-74.368-45.44-110.016-45.44h-126.784c-36.224 0-64.576 28.928-64.576 64.576v126.784c0 36.224 20.352 84.928 45.44 110.016zM429.44 493.44c-25.088-25.088-25.408-65.408 0.064-90.88l36.992-36.992c25.152-25.152 65.92-25.088 90.88-0.064l357.184 357.184c25.088 25.088 25.408 65.408-0.064 90.88l-36.992 36.992c-25.152 25.152-65.92 25.088-90.88 0.064l-357.184-357.184zM704 768l128-128 64 64-128 128-64-64z" />
<glyph unicode="&#xf776;" glyph-name="money" data-tags="money" d="M256 896h448v-128h-448v128zM128 704h384v-128h-384v128zM64 512h320v-128h-320v128zM0 320h320v-128h-320v128zM64 128h384v-128h-384v128zM768 256v-64h64v64h-64zM704 256h-128v64h128v64h-128v64h128v64h64v-64h128v-64h-128v-64h128v-192h-128v-64h-64v64h-128v64h128v64zM736 0c159.040 0 288 128.96 288 288s-128.96 288-288 288c-159.040 0-288-128.96-288-288s128.96-288 288-288zM576 384h64v-64h-64v64z" />
<glyph unicode="&#xf777;" glyph-name="more-bread" data-tags="more-bread" d="M64 768h896v-128h-896v128zM64 512h896v-128h-896v128zM64 256h896v-128h-896v128z" />
<glyph unicode="&#xf778;" glyph-name="more-option" data-tags="more-option" d="M960-64h-896c-35.328 0-64 28.672-64 64v896c0 35.328 28.672 64 64 64h896c35.328 0 64-28.672 64-64v-896c0-35.328-28.672-64-64-64v0zM896 832h-768v-768h768v768zM640 512h128v-128h-128v128zM448 512h128v-128h-128v128zM256 512h128v-128h-128v128z" />
<glyph unicode="&#xf779;" glyph-name="more-options" data-tags="more-options" d="M904-64h-784c-30.912 0-56 28.672-56 64v896c0 35.328 25.088 64 56 64h784c30.912 0 56-28.672 56-64v-896c0-35.328-25.088-64-56-64v0zM832 832h-640v-768h640v768zM320 320h128v-128h-128v128zM576 320h128v-128h-128v128zM320 704h128v-128h-128v128zM576 704h128v-128h-128v128zM320 512h128v-128h-128v128zM576 512h128v-128h-128v128z" />
<glyph unicode="&#xf77a;" glyph-name="more-two" data-tags="more-two" d="M448 832v-320h-320v320h320zM576 832h320v-320h-320v320zM448 64h-320v320h320v-320zM576 64v320h320v-320h-320zM64.064 960c-35.392 0-64.064-28.48-64.064-64.064v-895.872c0-35.392 28.48-64.064 64.064-64.064h895.872c35.392 0 64.064 28.48 64.064 64.064v895.872c0 35.392-28.48 64.064-64.064 64.064h-895.872zM192 768v-192h192v192h-192z" />
<glyph unicode="&#xf77b;" glyph-name="navigation" data-tags="navigation" d="M1.216 831.744h832l190.528-158.976-193.024-161.024h-830.528l192.256 160.448-191.232 159.552zM1022.784 448h-832l-190.528-127.168 193.024-128.832h830.528l-192.256 128.32 191.232 127.68zM512 960c35.328 0 64-28.672 64-64v-896c0-35.328-28.672-64-64-64s-64 28.672-64 64v896c0 35.328 28.672 64 64 64zM128 64l-128-128h1024l-128 128h-768z" />
<glyph unicode="&#xf77c;" glyph-name="nav-off" data-tags="nav-off" d="M64.064 896h895.872c35.584 0 64.064-28.864 64.064-64.448v-767.104c0-35.648-28.672-64.448-64.064-64.448h-895.872c-35.584 0-64.064 28.864-64.064 64.448v767.104c0 35.648 28.672 64.448 64.064 64.448zM256 768v-640h640v640h-640zM128 768v-64h64v64h-64zM128 512v-64h64v64h-64zM128 640v-64h64v64h-64zM128 384v-64h64v64h-64zM128 256v-64h64v64h-64zM448 448l192 192v-384l-192 192z" />
<glyph unicode="&#xf77d;" glyph-name="nav-on" data-tags="nav-on" d="M64.064 896h895.872c35.584 0 64.064-28.864 64.064-64.448v-767.104c0-35.648-28.672-64.448-64.064-64.448h-895.872c-35.584 0-64.064 28.864-64.064 64.448v767.104c0 35.648 28.672 64.448 64.064 64.448zM512 768v-640h384v640h-384zM128 768v-64h64v64h-64zM128 384v-64h64v64h-64zM256 768v-64h192v64h-192zM256 512v-64h192v64h-192zM128 640v-64h64v64h-64zM256 640v-64h192v64h-192zM256 384v-64h192v64h-192zM128 256v-64h64v64h-64zM256 256v-64h192v64h-192zM128 512v-64h64v64h-64zM832 448l-192 192v-384l192 192z" />
<glyph unicode="&#xf77e;" glyph-name="new" data-tags="new" d="M448 384v-128h128v128h128v128h-128v128h-128v-128h-128v-128h128zM128.448 960h767.104c35.648 0 64.448-28.672 64.448-64.064v-895.872c0-35.584-28.864-64.064-64.448-64.064h-767.104c-35.648 0-64.448 28.672-64.448 64.064v895.872c0 35.584 28.864 64.064 64.448 64.064zM192 832v-768h640v768h-640z" />
<glyph unicode="&#xf77f;" glyph-name="newspaper" data-tags="newspaper" d="M960-64h-896c-35.328 0-64 28.672-64 64v896c0 35.328 28.672 64 64 64h704v-128h192c35.328 0 64-28.672 64-64v-768c0-35.328-28.672-64-64-64v0zM896 704h-128v-512h-64v640h-576v-768h768v640zM256 256h320v-64h-320v64zM256 384h320v-64h-320v64zM256 704h320v-256h-320v256z" />
<glyph unicode="&#xf780;" glyph-name="newspaper-two" data-tags="newspaper-two" d="M1024 64v-64c0-35.328-28.672-64-64-64h-896c-35.328 0-64 28.672-64 64v768c0 35.328 28.672 64 64 64h64v64c0 35.328 28.672 64 64 64h768c35.328 0 64-28.672 64-64v-832zM256 640v0 64h-128v-640h128v576zM896 128v704h-512v-768h512v64zM704 704h64v-128h-256v128h192zM704 512h64v-128h-256v128h192zM704 320h64v-128h-256v128h192z" />
<glyph unicode="&#xf781;" glyph-name="no" data-tags="no" d="M474.496 320l-180.928-180.928c-24.768-24.768-65.6-25.088-90.624-0.128-25.152 25.152-24.96 65.536 0.128 90.624l180.928 180.928-180.928 180.928c-24.768 24.768-25.088 65.6-0.128 90.624 25.152 25.152 65.536 24.96 90.624-0.128l180.928-180.928 180.928 180.928c24.768 24.768 65.6 25.088 90.624 0.128 25.152-25.152 24.96-65.536-0.128-90.624l-180.928-180.928 180.928-180.928c24.768-24.768 25.088-65.6 0.128-90.624-25.152-25.152-65.536-24.96-90.624 0.128l-180.928 180.928z" />
<glyph unicode="&#xf782;" glyph-name="no2" data-tags="no2" d="M512-64c-282.752 0-512 229.248-512 512s229.248 512 512 512c282.752 0 512-229.248 512-512s-229.248-512-512-512zM512 64c212.096 0 384 171.904 384 384s-171.904 384-384 384c-212.096 0-384-171.904-384-384s171.904-384 384-384zM320 512h384c35.328 0 64-28.672 64-64s-28.672-64-64-64h-384c-35.328 0-64 28.672-64 64s28.672 64 64 64z" />
<glyph unicode="&#xf783;" glyph-name="notebook" data-tags="notebook" d="M128-64v128h128v256h-128v256h128v256h-128v128h832v-1024h-832zM832 832h-448v-320h448v320zM768 704h-320v64h320v-64zM768 576h-320v64h320v-64zM192 640h-128v128h128v-128zM192 128h-128v128h128v-128z" />
<glyph unicode="&#xf784;" glyph-name="notebook-two" data-tags="notebook-two" d="M832 0v128h128v-128h-128zM832 320h128v-128h-128v128zM832 512h128v-128h-128v128zM832 704h128v-128h-128v128zM768-64h-640v128h128v256h-128v256h128v256h-128v128h832v-192h-192v-832zM192 640h-128v128h128v-128zM192 128h-128v128h128v-128z" />
<glyph unicode="&#xf785;" glyph-name="order" data-tags="order" d="M768 704v-192.576c0-35.008 28.416-63.424 64-63.424 35.328 0 64 28.864 64 63.424v192.576h128l-192 256-192-256h128zM896 384v-383.552c0-35.776-28.864-64.448-64.448-64.448h-767.104c-35.648 0-64.448 28.864-64.448 64.448v831.040c0 35.776 28.864 64.448 64.448 64.448h575.552v-128h-512v-704h640v320h128zM256 640v-64h384v64h-384zM256 448v-64h384v64h-384zM256 256v-64h384v64h-384z" />
<glyph unicode="&#xf786;" glyph-name="order-two" data-tags="order-two" d="M896 128h-64v-64h-64v64h-64v64h-64v64h128v384h-192v64h256v-448h128v-64h-64v-64zM0 64h64v64h64v64h64v64h-192v128h448v-128h-64v-64h-64v-64h-64v-64h192v-128h-448v128zM128 576v-64h-128v384h64v64h320v-64h64v-384h-128v64h-192zM320 832h-192v-128h192v128z" />
<glyph unicode="&#xf787;" glyph-name="out" data-tags="out" d="M960-64h-896c-35.328 0-64 28.672-64 64v448c0 35.328 28.672 64 64 64s64-28.672 64-64v-384h768v384c0 35.328 28.672 64 64 64s64-28.672 64-64v-448c0-35.328-28.672-64-64-64v0zM576 320c0-35.328-28.672-64-64-64s-64 28.672-64 64v384h-192l256 256 256-256h-192v-384z" />
<glyph unicode="&#xf788;" glyph-name="page" data-tags="page" d="M64.064 960h895.872c35.584 0 64.064-28.672 64.064-64.064v-895.872c0-35.584-28.672-64.064-64.064-64.064h-895.872c-35.584 0-64.064 28.672-64.064 64.064v895.872c0 35.584 28.672 64.064 64.064 64.064zM128 832v-768h768v768h-768zM192 768v-384h384v384h-384zM640 768v-192h192v192h-192zM640 512v-128h192v128h-192zM192 320v-64h640v64h-640zM192 192v-64h640v64h-640z" />
<glyph unicode="&#xf789;" glyph-name="page-long" data-tags="page-long" d="M64.064 960h895.872c35.584 0 64.064-28.672 64.064-64.064v-959.936l-128 128-128-128-128 128-128-128-128 128-128-128-128 128-128-128v959.936c0 35.584 28.672 64.064 64.064 64.064zM128 832v-640l128-128 128 128 128.064-128 127.936 128 128-128 128 128v640h-768zM192 768v-256h384v256h-384zM640 768v-64h192v64h-192zM640 640v-128h192v128h-192zM192 448v-64h640v64h-640zM192 320v-64h640v64h-640z" />
<glyph unicode="&#xf78a;" glyph-name="pause" data-tags="pause" d="M512-64c-282.752 0-512 229.248-512 512s229.248 512 512 512c282.752 0 512-229.248 512-512s-229.248-512-512-512zM512 64c212.096 0 384 171.904 384 384s-171.904 384-384 384c-212.096 0-384-171.904-384-384s171.904-384 384-384zM384 640c35.328 0 64-28.672 64-64v-256c0-35.328-28.672-64-64-64s-64 28.672-64 64v256c0 35.328 28.672 64 64 64zM640 640c35.328 0 64-28.672 64-64v-256c0-35.328-28.672-64-64-64s-64 28.672-64 64v256c0 35.328 28.672 64 64 64z" />
<glyph unicode="&#xf78b;" glyph-name="people" data-tags="people" d="M640 384v-448h-256v448h-64v384h384v-384h-64zM448 960h128v-128h-128v128z" />
<glyph unicode="&#xf78c;" glyph-name="people-more" data-tags="people-more" d="M896 384v-448h-192v448h64v384h192v-384h-64zM640-64h-256v448h-64v384h384v-384h-64v-448zM704 960h128v-128h-128v128zM448 960h128v-128h-128v128zM192 960h128v-128h-128v128zM256 320h64v-384h-192v448h-64v384h192v-448z" />
<glyph unicode="&#xf78d;" glyph-name="people-three" data-tags="people-three" d="M960 384v-448h-256v512h-64v256h384v-320h-64zM768 896h128v-128h-128v128zM448 576h128v-128h-128v128zM640 192h-64v-256h-128v256h-64v192h256v-192zM320 384v-448h-256v448h-64v384h384v-320h-64v-64zM128 960h128v-128h-128v128z" />
<glyph unicode="&#xf78e;" glyph-name="people-two" data-tags="people-two" d="M896 384v-448h-256v448h-64v320h384v-320h-64zM704 896h128v-128h-128v128zM448-64h-256v448h-64v384h384v-384h-64v-448zM256 960h128v-128h-128v128z" />
<glyph unicode="&#xf78f;" glyph-name="pie-eight" data-tags="pie-eight" d="M512 832v-384l-271.552 271.552c69.504 69.504 165.504 112.448 271.552 112.448zM512-64c282.752 0 512 229.248 512 512s-229.248 512-512 512c-282.752 0-512-229.248-512-512s229.248-512 512-512z" />
<glyph unicode="&#xf790;" glyph-name="pie-five" data-tags="pie-five" d="M512 832v-768c-212.096 0-384 171.904-384 384s171.904 384 384 384zM512-64c282.752 0 512 229.248 512 512s-229.248 512-512 512c-282.752 0-512-229.248-512-512s229.248-512 512-512z" />
<glyph unicode="&#xf791;" glyph-name="pie-four" data-tags="pie-four" d="M783.552 176.448c-69.504-69.504-165.504-112.448-271.552-112.448-212.096 0-384 171.904-384 384s171.904 384 384 384v-384l271.552-271.552zM512-64c282.752 0 512 229.248 512 512s-229.248 512-512 512c-282.752 0-512-229.248-512-512s229.248-512 512-512z" />
<glyph unicode="&#xf792;" glyph-name="pie-one" data-tags="pie-one" d="M725.056 767.552c103.104-68.864 170.944-186.24 170.944-319.552 0-212.096-171.904-384-384-384s-384 171.904-384 384c0 212.096 171.904 384 384 384v-384l213.056 319.552zM512-64c282.752 0 512 229.248 512 512s-229.248 512-512 512c-282.752 0-512-229.248-512-512s229.248-512 512-512z" />
<glyph unicode="&#xf793;" glyph-name="pie-seven" data-tags="pie-seven" d="M512 832v-384h-384c0 212.096 171.904 384 384 384zM512-64c282.752 0 512 229.248 512 512s-229.248 512-512 512c-282.752 0-512-229.248-512-512s229.248-512 512-512z" />
<glyph unicode="&#xf794;" glyph-name="pie-six" data-tags="pie-six" d="M512 832v-384l-271.552-271.552c-69.504 69.504-112.448 165.504-112.448 271.552 0 212.096 171.904 384 384 384zM512-64c282.752 0 512 229.248 512 512s-229.248 512-512 512c-282.752 0-512-229.248-512-512s229.248-512 512-512z" />
<glyph unicode="&#xf795;" glyph-name="pie-three" data-tags="pie-three" d="M896 448c0-212.096-171.904-384-384-384s-384 171.904-384 384c0 212.096 171.904 384 384 384v-384h384zM512-64c282.752 0 512 229.248 512 512s-229.248 512-512 512c-282.752 0-512-229.248-512-512s229.248-512 512-512z" />
<glyph unicode="&#xf796;" glyph-name="pie-two" data-tags="pie-two" d="M806.976 693.824c55.552-66.624 89.024-152.32 89.024-245.824 0-212.096-171.904-384-384-384s-384 171.904-384 384c0 212.096 171.904 384 384 384v-384l294.976 245.824zM512-64c282.752 0 512 229.248 512 512s-229.248 512-512 512c-282.752 0-512-229.248-512-512s229.248-512 512-512z" />
<glyph unicode="&#xf797;" glyph-name="pin" data-tags="pin" d="M512-64c0 0-384 427.968-384 640s171.904 384 384 384c212.096 0 384-171.904 384-384s-384-640-384-640v0zM512 832c-141.376 0-256-114.624-256-256s114.624-256 256-256c141.376 0 256 114.624 256 256s-114.624 256-256 256v0z" />
<glyph unicode="&#xf798;" glyph-name="pin-alt" data-tags="pin-alt" d="M512-64c0 0-384 427.968-384 640s171.968 384 384 384c212.032 0 384-171.904 384-384s-384-640-384-640v0zM512 832c-141.376 0-256-114.624-256-256s114.624-256 256-256c141.376 0 256 114.624 256 256s-114.624 256-256 256v0zM512 448c-70.72 0-128 57.344-128 128s57.28 128 128 128c70.656 0 128-57.28 128-128 0-70.656-57.344-128-128-128v0z" />
<glyph unicode="&#xf799;" glyph-name="play" data-tags="play" d="M512-64c-282.752 0-512 229.248-512 512s229.248 512 512 512c282.752 0 512-229.248 512-512s-229.248-512-512-512zM512 64c212.096 0 384 171.904 384 384s-171.904 384-384 384c-212.096 0-384-171.904-384-384s171.904-384 384-384zM704 448l-320-192v384z" />
<glyph unicode="&#xf79a;" glyph-name="pluse" data-tags="pluse" d="M448 384h-192.32c-34.56 0-63.68 28.672-63.68 64 0 35.584 28.544 64 63.68 64h192.32v192.32c0 34.56 28.672 63.68 64 63.68 35.584 0 64-28.544 64-63.68v-192.32h192.32c34.56 0 63.68-28.672 63.68-64 0-35.584-28.544-64-63.68-64h-192.32v-192.32c0-34.56-28.672-63.68-64-63.68-35.584 0-64 28.544-64 63.68v192.32z" />
<glyph unicode="&#xf79b;" glyph-name="portfolio" data-tags="portfolio" d="M960-64h-896c-35.328 0-64 28.672-64 64v704c0 35.328 28.672 64 64 64h256v128c0 35.328 28.672 64 64 64h256c35.328 0 64-28.672 64-64v-128h256c35.328 0 64-28.672 64-64v-704c0-35.328-28.672-64-64-64v0zM576 832h-128v-64h128v64zM896 640h-768v-256h256v64h256v-64h256v256zM896 320h-256v-64h-256v64h-256v-256h768v256z" />
<glyph unicode="&#xf79c;" glyph-name="qr-code" data-tags="qr-code" d="M704-64v64h320v-64h-320zM832 128h-64v64h-64v64h64v64h-128v64h256v-64h-64v-128h64v-64h64v256h64v-320h-192v64zM704 64v64h64v-64h-64zM960 576h64v-128h-64v128zM768 448v128h128v-128h-128zM704 960h320v-320h-320v320zM768 704h192v192h-192v-192zM832 832h64v-64h-64v64zM704 448h-64v64h64v-64zM576 448v-128h-64v128h-64v192h192v-64h-64v-128zM512 128v-64h-128v384h64v-320h64zM640 256v-320h-256v64h192v128h-64v128h128zM384 832h64v-192h-64v192zM512 832h128v-128h-128v128zM384 960h256v-64h-256v64zM0 960h320v-320h-320v320zM64 704h192v192h-192v-192zM128 832h64v-64h-64v64zM64 320h-64v256h64v-256zM320-64h-320v320h320v-320zM256 192h-192v-192h192v192zM192 64h-64v64h64v-64zM320 448v-128h-192v256h256v-64h-192v-64h128z" />
<glyph unicode="&#xf79d;" glyph-name="question" data-tags="question" d="M0 895.936c0 35.392 28.48 64.064 64.064 64.064h895.872c35.392 0 64.064-28.48 64.064-64.064v-895.872c0-35.392-28.48-64.064-64.064-64.064h-895.872c-35.392 0-64.064 28.48-64.064 64.064v895.872zM896 832h-768v-768h768v768zM384 704h256v-64h64v-192h-64v-64h-64v-64h-128v128h64v64h64v64h-192v-64h-64v128h64v64zM576 128h-128v128h128v-128z" />
<glyph unicode="&#xf79e;" glyph-name="radio-off" data-tags="radio-off" d="M512-64c-282.752 0-512 229.248-512 512s229.248 512 512 512c282.752 0 512-229.248 512-512s-229.248-512-512-512zM512 64c212.096 0 384 171.904 384 384s-171.904 384-384 384c-212.096 0-384-171.904-384-384s171.904-384 384-384zM512 128c-176.704 0-320 143.296-320 320s143.296 320 320 320c176.704 0 320-143.296 320-320s-143.296-320-320-320zM512 256c106.048 0 192 85.952 192 192s-85.952 192-192 192c-106.048 0-192-85.952-192-192s85.952-192 192-192z" />
<glyph unicode="&#xf79f;" glyph-name="radio-un" data-tags="radio-un" d="M512-64c-282.752 0-512 229.248-512 512s229.248 512 512 512c282.752 0 512-229.248 512-512s-229.248-512-512-512zM512 64c212.096 0 384 171.904 384 384s-171.904 384-384 384c-212.096 0-384-171.904-384-384s171.904-384 384-384zM768 448c0-141.376-114.624-256-256-256s-256 114.624-256 256c0 141.376 114.624 256 256 256s256-114.624 256-256z" />
<glyph unicode="&#xf7a0;" glyph-name="redo" data-tags="redo" d="M959.104 1.344c0.64 10.56 0.896 21.248 0.896 32 0 300.416-243.584 544-544 544-10.752 0-21.44-0.32-32-0.896v0-191.104c250.816 0 464.128-160.256 543.232-384h31.872zM64 480l384 352v-704z" />
<glyph unicode="&#xf7a1;" glyph-name="redo-two" data-tags="redo-two" d="M384 697.6c-20.672 4.224-42.112 6.4-64 6.4-176.704 0-320-143.296-320-320s143.296-320 320-320c21.888 0 43.328 2.176 64 6.4v132.544c-20.032-7.104-41.536-10.944-64-10.944-106.048 0-192 85.952-192 192s85.952 192 192 192c22.464 0 43.968-3.84 64-10.944v132.544zM768 448v384l256-192zM768 192h-384v-128h512l-128 128zM768 704h-384v-128h384v128z" />
<glyph unicode="&#xf7a2;" glyph-name="refresh" data-tags="refresh" d="M128 384v-383.936c0-35.392 29.184-64.064 64.128-64.064h639.68c35.456 0 64.128 28.48 64.128 64.064v191.936h-128v-128h-512v320h-128zM128 704v191.936c0 35.584 28.736 64.064 64.128 64.064h639.68c35.008 0 64.128-28.672 64.128-64.064v-383.936h-128v320h-512v-128h-128zM641.92 448l190.080-192 192 194.24v61.76h-384l1.92-64zM1.92 448l190.080 192 192-194.24v-61.76h-384l1.92 64z" />
<glyph unicode="&#xf7a3;" glyph-name="refresh-three" data-tags="refresh-three" d="M1015.936 576h8.064v320l-119.36-119.36c-93.952 112.064-234.944 183.36-392.64 183.36-282.752 0-512-229.248-512-512h128c0 212.096 171.904 384 384 384 122.368 0 231.296-57.216 301.632-146.368l-109.632-109.632h311.936zM1024 448c0-282.752-229.248-512-512-512-157.696 0-298.688 71.296-392.64 183.36v0l-119.36-119.36v320h320l-109.632-109.632c70.336-89.152 179.328-146.368 301.632-146.368 212.096 0 384 171.904 384 384h128z" />
<glyph unicode="&#xf7a4;" glyph-name="refresh-two" data-tags="refresh-two" d="M640 761.6c20.672 4.224 42.112 6.4 64 6.4 176.704 0 320-143.296 320-320s-143.296-320-320-320c-21.888 0-43.328 2.176-64 6.4v132.544c20.032-7.104 41.536-10.944 64-10.944 106.048 0 192 85.952 192 192s-85.952 192-192 192c-22.464 0-43.968-3.84-64-10.944v132.544zM384 761.6c-20.672 4.224-42.112 6.4-64 6.4-176.704 0-320-143.296-320-320s143.296-320 320-320c21.888 0 43.328 2.176 64 6.4v132.544c-20.032-7.104-41.536-10.944-64-10.944-106.048 0-192 85.952-192 192s85.952 192 192 192c22.464 0 43.968-3.84 64-10.944v132.544zM704 512v256h-256zM320 384v-256h256z" />
<glyph unicode="&#xf7a5;" glyph-name="region" data-tags="region" d="M703.424 320v0c-18.176-36.544-38.592-73.984-59.2-109.696h187.776l64-164.544h-768l64 164.544h187.776c-20.608 35.776-41.024 73.152-59.2 109.696h-128.448c-35.456 0-73.344-27.584-84.416-60.864l-87.424-262.336c-11.2-33.6 8.192-60.864 43.776-60.864h895.872c35.392 0 54.848 27.584 43.776 60.864l-87.424 262.336c-11.2 33.6-49.472 60.864-84.416 60.864h-128.448zM512 128c0 0-256 370.624-256 512s114.624 256 256 256c141.376 0 256-114.624 256-256s-256-512-256-512zM512 512c70.72 0 128 57.28 128 128s-57.28 128-128 128c-70.72 0-128-57.28-128-128s57.28-128 128-128z" />
<glyph unicode="&#xf7a6;" glyph-name="reverse" data-tags="reverse" d="M768 704v192.576c0 34.56 28.672 63.424 64 63.424 35.584 0 64-28.416 64-63.424v-192.576h128l-192-256-192 256h128zM896 384v-383.552c0-35.776-28.864-64.448-64.448-64.448h-767.104c-35.648 0-64.448 28.864-64.448 64.448v831.040c0 35.776 28.864 64.448 64.448 64.448h575.552v-128h-512v-704h640v320h128zM256 640v-64h384v64h-384zM256 448v-64h384v64h-384zM256 256v-64h384v64h-384z" />
<glyph unicode="&#xf7a7;" glyph-name="reverse-two" data-tags="reverse-two" d="M896 128h-64v-64h-64v64h-64v64h-64v64h128v384h-192v64h256v-448h128v-64h-64v-64zM320 0h-192v-64h-128v384h64v64h320v-64h64v-384h-128v64zM320 256h-192v-128h192v128zM0 640h64v64h64v64h64v64h-192v128h448v-128h-64v-64h-64v-64h-64v-64h192v-128h-448v128z" />
<glyph unicode="&#xf7a8;" glyph-name="right" data-tags="right" d="M1004.096 589.76c12.928-44.992 19.904-92.608 19.904-141.76 0-282.752-229.248-512-512-512s-512 229.248-512 512c0 282.752 229.248 512 512 512 115.328 0 221.76-38.144 307.328-102.464l-91.712-91.712c-61.44 41.792-135.68 66.176-215.616 66.176-212.096 0-384-171.904-384-384s171.904-384 384-384c212.096 0 384 171.904 384 384 0 10.88-0.448 21.632-1.344 32.32l109.44 109.44zM500.544 248.512c17.664-0.96 35.712 5.248 49.024 18.624l452.352 452.352c25.024 25.024 25.28 65.472 0.128 90.624-25.024 25.024-65.856 24.64-90.624-0.128l-412.672-412.672-141.696 141.696c-24.768 24.768-64.896 24.768-90.112-0.448-25.024-25.024-24.832-65.664-0.448-90.112l181.824-181.824c14.208-14.208 33.536-20.288 52.16-18.048z" />
<glyph unicode="&#xf7a9;" glyph-name="save" data-tags="save" d="M64.128 960h703.872l256-256v-703.872c0-35.008-28.672-64.128-64.064-64.128h-895.872c-35.584 0-64.064 28.672-64.064 64.064v895.872c0 35.584 28.736 64.064 64.128 64.064zM128 320v-256h768v256h-768zM128 832v-320h640v320h-640zM448 832v-256h192v256h-192z" />
<glyph unicode="&#xf7aa;" glyph-name="screen" data-tags="screen" d="M960 128h-384v-64h192c35.328 0 64-28.672 64-64v-64h-640v64c0 35.328 28.672 64 64 64h192v64h-384c-35.328 0-64 28.672-64 64v704c0 35.328 28.672 64 64 64h896c35.328 0 64-28.672 64-64v-704c0-35.328-28.672-64-64-64v0zM896 832h-768v-576h768v576z" />
<glyph unicode="&#xf7ab;" glyph-name="search" data-tags="search" d="M691.456 135.872c-70.080-45.44-153.728-71.872-243.456-71.872-247.424 0-448 200.576-448 448s200.576 448 448 448c247.424 0 448-200.576 448-448 0-89.728-26.368-173.376-71.872-243.456 5.696-3.648 11.072-8 16-12.992l151.616-151.616c37.44-37.44 37.888-98.688 0.448-136.192-37.76-37.76-98.432-37.312-136.192 0.448l-151.616 151.616c-4.992 4.992-9.28 10.368-12.928 16.064zM448 192c176.704 0 320 143.296 320 320s-143.296 320-320 320c-176.704 0-320-143.296-320-320s143.296-320 320-320z" />
<glyph unicode="&#xf7ac;" glyph-name="setting-four" data-tags="setting-four" d="M1024 512v-128h-133.824c-9.6-56.704-32.128-108.736-63.68-154.048l134.208-116.736-92.352-114.112-147.968 128.704c-43.072-27.968-91.584-48.448-144.384-57.344v-134.464h-128v133.76c-52.928 8.96-101.568 29.568-144.64 57.792l-147.712-128.448-92.416 114.176 134.464 116.928c-31.296 45.248-53.696 97.216-63.232 153.792h-134.464v128h133.824c9.6 56.704 32.128 108.8 63.68 154.048l-134.272 116.736 92.352 114.112 147.968-128.64c43.136 27.904 91.648 48.384 144.448 57.28v134.464h128v-134.464c52.8-8.896 101.312-29.376 144.384-57.344l147.968 128.64 92.352-114.112-134.208-116.736c31.616-45.184 54.144-97.28 63.68-153.984h133.824zM512 640c-106.048 0-192-85.952-192-192s85.952-192 192-192c106.048 0 192 85.952 192 192s-85.952 192-192 192v0z" />
<glyph unicode="&#xf7ad;" glyph-name="setting-one" data-tags="setting-one" d="M606.784 75.776l-41.728-137.088c-17.472-1.792-35.136-2.688-53.12-2.688-20.992 0-41.664 1.28-61.952 3.712l-39.296 137.792c-33.664 9.216-65.536 22.848-94.848 40.32l-126.4-67.456c-29.888 24.256-56.96 51.776-80.64 82.048l69.632 125.248c-16.896 29.632-30.016 61.696-38.656 95.552l-137.088 41.728c-1.792 17.472-2.752 35.136-2.752 53.12 0 20.992 1.28 41.664 3.712 61.952l137.792 39.296c9.216 33.664 22.848 65.536 40.32 94.848l-67.456 126.4c24.256 29.888 51.776 56.96 82.048 80.64l125.248-69.632c29.632 16.896 61.696 30.016 95.552 38.656l41.728 137.088c17.472 1.792 35.136 2.752 53.12 2.752 20.992 0 41.664-1.28 61.952-3.712l39.296-137.792c33.664-9.216 65.536-22.848 94.848-40.32l126.4 67.456c29.888-24.256 56.96-51.776 80.64-82.048l-69.632-125.248c16.896-29.632 30.016-61.696 38.656-95.552l137.088-41.728c1.792-17.472 2.752-35.136 2.752-53.12 0-20.992-1.28-41.664-3.712-61.952l-137.792-39.296c-9.216-33.664-22.848-65.536-40.32-94.848l67.456-126.4c-24.256-29.888-51.776-56.96-82.048-80.64l-125.248 69.632c-29.632-16.896-61.696-30.016-95.552-38.656zM512 256c106.048 0 192 85.952 192 192s-85.952 192-192 192c-106.048 0-192-85.952-192-192s85.952-192 192-192z" />
<glyph unicode="&#xf7ae;" glyph-name="setting-three" data-tags="setting-three" d="M645.44 256v0c13.184-37.312 48.768-64 90.56-64 52.992 0 96 43.008 96 96s-43.008 96-96 96c-41.792 0-77.376-26.688-90.56-64h-202.944c-13.184 37.312-48.768 64-90.56 64-52.992 0-96-43.008-96-96s43.008-96 96-96c41.792 0 77.376 26.688 90.56 64h202.944zM581.44 640v0c13.184 37.312 48.768 64 90.56 64 52.992 0 96-43.008 96-96s-43.008-96-96-96c-41.792 0-77.376 26.688-90.56 64h-202.944c-13.184-37.312-48.768-64-90.56-64-52.992 0-96 43.008-96 96s43.008 96 96 96c41.792 0 77.376-26.688 90.56-64h202.944zM64.064 960h895.872c35.584 0 64.064-28.672 64.064-64.064v-895.872c0-35.584-28.672-64.064-64.064-64.064h-895.872c-35.584 0-64.064 28.672-64.064 64.064v895.872c0 35.584 28.672 64.064 64.064 64.064zM128 832v-768h768v768h-768zM256 640v-64h64v64h-64zM704 320h64v-64h-64v64z" />
<glyph unicode="&#xf7af;" glyph-name="setting-two" data-tags="setting-two" d="M651.712-44.736l-139.712 118.336-139.712-118.336c-24.128 6.848-47.488 15.36-70.016 25.472l-30.976 180.416-182.976-0.832c-13.952 20.48-26.432 42.048-37.376 64.576l92.224 158.080-140.672 116.928c2.496 25.088 6.848 49.6 12.864 73.472l172.288 61.824-32.576 179.968c17.856 17.344 36.928 33.408 57.152 48l171.648-63.36 90.752 158.848c12.352 0.896 24.768 1.344 37.312 1.344s25.024-0.448 37.312-1.344l90.752-158.848 171.648 63.36c20.224-14.592 39.296-30.656 57.152-48l-32.576-179.968 172.288-61.824c6.016-23.872 10.368-48.384 12.864-73.472l-140.672-116.928 92.224-158.080c-10.88-22.464-23.424-44.032-37.376-64.576l-182.976 0.832-30.976-180.416c-22.528-10.112-45.888-18.688-70.016-25.472zM512 192c141.376 0 256 114.624 256 256s-114.624 256-256 256c-141.376 0-256-114.624-256-256s114.624-256 256-256zM640 448c0-70.72-57.28-128-128-128s-128 57.28-128 128c0 70.72 57.28 128 128 128s128-57.28 128-128z" />
<glyph unicode="&#xf7b0;" glyph-name="shopping-cart-add" data-tags="shopping-cart-add" d="M896 704v-512h-896v128h768v512h256v-128h-128zM448 384h-128v128h-128v128h128v128h128v-128h128v-128h-128v-128zM222.016 129.984c52.992 0 96-42.944 96-96s-43.008-96-96-96c-52.992 0-96 42.944-96 96s42.944 96 96 96v0zM670.016 129.984c52.992 0 96-42.944 96-96s-43.008-96-96-96c-52.992 0-96 42.944-96 96s42.944 96 96 96v0z" />
<glyph unicode="&#xf7b1;" glyph-name="shopping-cart-down" data-tags="shopping-cart-down" d="M896 704v-512h-896v128h768v512h256v-128h-128zM576 512h-64v-64h-64v-64h-64v64h-64v64h-64v64h-64v64h128v128h192v-128h128v-64h-64v-64zM222.016 129.984c52.992 0 96-42.944 96-96s-43.008-96-96-96c-52.992 0-96 42.944-96 96s42.944 96 96 96v0zM670.016 129.984c52.992 0 96-42.944 96-96s-43.008-96-96-96c-52.992 0-96 42.944-96 96s42.944 96 96 96v0z" />
<glyph unicode="&#xf7b2;" glyph-name="shopping-cart-four" data-tags="shopping-cart-four" d="M896 704v-512h-896v320h768v320h256v-128h-128zM384 768h320v-192h-320v192zM64 704h256v-128h-256v128zM222.016 129.984c52.992 0 96-42.944 96-96s-43.008-96-96-96c-52.992 0-96 42.944-96 96s42.944 96 96 96v0zM670.016 129.984c52.992 0 96-42.944 96-96s-43.008-96-96-96c-52.992 0-96 42.944-96 96s42.944 96 96 96v0z" />
<glyph unicode="&#xf7b3;" glyph-name="shopping-cart-one" data-tags="shopping-cart-one" d="M896 704v-512h-896v128h768v512h256v-128h-128zM222.016 129.984c52.992 0 96-42.944 96-96s-43.008-96-96-96c-52.992 0-96 42.944-96 96s42.944 96 96 96v0zM670.016 129.984c52.992 0 96-42.944 96-96s-43.008-96-96-96c-52.992 0-96 42.944-96 96s42.944 96 96 96v0z" />
<glyph unicode="&#xf7b4;" glyph-name="shopping-cart-three" data-tags="shopping-cart-three" d="M896 704v-512h-896v128h768v512h256v-128h-128zM384 640h320v-256h-320v256zM384 832h320v-128h-320v128zM64 576h256v-192h-256v192zM64 768h256v-128h-256v128zM222.016 129.984c52.992 0 96-42.944 96-96s-43.008-96-96-96c-52.992 0-96 42.944-96 96s42.944 96 96 96v0zM670.016 129.984c52.992 0 96-42.944 96-96s-43.008-96-96-96c-52.992 0-96 42.944-96 96s42.944 96 96 96v0z" />
<glyph unicode="&#xf7b5;" glyph-name="shopping-cart-two" data-tags="shopping-cart-two" d="M896 704v-512h-896v128h768v512h256v-128h-128zM384 576h320v-192h-320v192zM64 512h256v-128h-256v128zM222.016 129.984c52.992 0 96-42.944 96-96s-43.008-96-96-96c-52.992 0-96 42.944-96 96s42.944 96 96 96v0zM670.016 129.984c52.992 0 96-42.944 96-96s-43.008-96-96-96c-52.992 0-96 42.944-96 96s42.944 96 96 96v0z" />
<glyph unicode="&#xf7b6;" glyph-name="shopping-cart-up" data-tags="shopping-cart-up" d="M896 704v-512h-896v128h768v512h256v-128h-128zM512 384h-192v128h-128v64h64v64h64v64h64v64h64v-64h64v-64h64v-64h64v-64h-128v-128zM222.016 129.984c53.056 0 96-42.944 96-96s-42.944-96-96-96c-52.992 0-96 42.944-96 96s42.944 96 96 96v0zM670.016 129.984c52.992 0 96-42.944 96-96s-43.008-96-96-96c-52.992 0-96 42.944-96 96s42.944 96 96 96v0z" />
<glyph unicode="&#xf7b7;" glyph-name="shutdown" data-tags="shutdown" d="M819.2 857.6c124.352-93.44 204.8-242.112 204.8-409.6 0-282.752-229.248-512-512-512s-512 229.248-512 512c0 167.488 80.448 316.224 204.8 409.6l76.8-102.4c-93.248-70.080-153.6-181.568-153.6-307.2 0-212.096 171.904-384 384-384s384 171.904 384 384c0 125.632-60.352 237.184-153.6 307.2l76.8 102.4zM512 960c35.328 0 64-28.672 64-64v-384c0-35.328-28.672-64-64-64s-64 28.672-64 64v384c0 35.328 28.672 64 64 64z" />
<glyph unicode="&#xf7b8;" glyph-name="sorting-vertical" data-tags="sorting-vertical" d="M512 64l256 256h-512zM512 704l256-256h-512z" />
<glyph unicode="&#xf7b9;" glyph-name="sound" data-tags="sound" d="M816.96 658.432c-25.984-25.984-68.096-25.984-94.016 0-25.984 25.92-25.984 68.032 0 94.016l188.096 188.096c25.984 25.92 68.096 25.92 94.016 0 25.984-25.984 25.984-68.096 0-94.016l-188.096-188.096zM512-64.512l-256 256h-192c-35.328 0-64 28.672-64 64v384c0 35.328 28.672 64 64 64h192l256 256c0 0 64 8 64-64v-896c0-72-64-64-64-64v0zM448 703.488l-128-128h-192v-256h192l128-128v512zM768 383.488c-35.328 0-64 28.672-64 64s28.672 64 64 64h192c35.328 0 64-28.672 64-64s-28.672-64-64-64h-192zM816.96 236.544l188.096-188.096c25.984-25.984 25.984-68.096 0-94.016-25.984-25.984-68.096-25.984-94.016 0l-188.096 188.096c-25.984 25.984-25.984 68.032 0 94.016s68.096 25.92 94.016 0v0z" />
<glyph unicode="&#xf7ba;" glyph-name="sound-off" data-tags="sound-off" d="M1022.976 352.256l-95.488-95.488-95.488 95.488-95.488-95.488-95.488 95.488 95.488 95.488-95.488 95.488 95.488 95.488 95.488-95.488 95.488 95.488 95.488-95.488-95.488-95.488 95.488-95.488zM512-64.256l-256 256h-192c-35.328 0-64 28.672-64 64v384c0 35.328 28.672 64 64 64h192l256 256c0 0 64 8 64-64v-896c0-72-64-64-64-64v0zM448 703.744l-128-128h-192v-256h192l128-128v512z" />
<glyph unicode="&#xf7bb;" glyph-name="sound-on" data-tags="sound-on" d="M640-47.488v134.72c148.8 52.864 256 193.536 256 360.512s-107.2 307.584-256 360.512v134.72c220.736-56.896 384-256.704 384-495.232 0-238.464-163.264-438.336-384-495.232v0zM512-64.256l-256 256h-192c-35.328 0-64 28.672-64 64v384c0 35.328 28.672 64 64 64h192l256 256c0 0 64 8 64-64v-896c0-72-64-64-64-64v0zM448 703.744l-128-128h-192v-256h192l128-128v512zM832 447.744c0-119.168-81.792-218.432-192-246.976v136.704c38.080 22.144 64 62.976 64 110.208s-25.92 88.064-64 110.272v136.768c110.208-28.608 192-127.808 192-246.976v0z" />
<glyph unicode="&#xf7bc;" glyph-name="star" data-tags="star" d="M508.8 112.96l272.576-144.512c30.784-16.32 51.84-1.92 45.952 32.704l-52.224 306.88 220.544 216.768c25.792 25.344 17.472 49.152-17.472 54.272l-304.768 44.672-136.64 279.232c-15.552 31.744-40.448 31.488-55.808 0l-136.64-279.232-304.768-44.672c-34.368-5.056-42.752-29.44-17.472-54.272l220.544-216.768-52.224-306.88c-5.952-34.944 14.656-49.28 45.952-32.704l272.576 144.512zM508.8 254.144l-164.608-87.232 31.424 184.832-133.12 130.88 184 26.944 82.304 168.128 82.304-168.128 184-26.944-133.12-130.88 31.424-184.832-164.608 87.232z" />
<glyph unicode="&#xf7bd;" glyph-name="star-full" data-tags="star-full" d="M508.8 112.96l-329.152-174.528 62.848 369.6-266.304 261.76 368 53.952 164.608 336.256 164.608-336.256 368-53.952-266.304-261.76 62.848-369.6z" />
<glyph unicode="&#xf7be;" glyph-name="stop" data-tags="stop" d="M512-64c-282.752 0-512 229.248-512 512s229.248 512 512 512c282.752 0 512-229.248 512-512s-229.248-512-512-512zM512 64c212.096 0 384 171.904 384 384s-171.904 384-384 384c-212.096 0-384-171.904-384-384s171.904-384 384-384zM384 640h256c35.328 0 64-28.672 64-64v-256c0-35.328-28.672-64-64-64h-256c-35.328 0-64 28.672-64 64v256c0 35.328 28.672 64 64 64z" />
<glyph unicode="&#xf7bf;" glyph-name="switch" data-tags="switch" d="M320 128c-176.704 0-320 143.296-320 320s143.296 320 320 320h384c176.704 0 320-143.296 320-320s-143.296-320-320-320h-384zM320 256c106.048 0 192 85.952 192 192s-85.952 192-192 192c-106.048 0-192-85.952-192-192s85.952-192 192-192z" />
<glyph unicode="&#xf7c0;" glyph-name="table" data-tags="table" d="M0 896h1024v-896h-1024v896zM128 768v-256h256v256h-256zM128 448v-128h256v128h-256zM128 256v-128h256v128h-256zM448 768v-256h192v256h-192zM448 448v-128h192v128h-192zM448 256v-128h192v128h-192zM704 768v-256h192v256h-192zM704 448v-128h192v128h-192zM704 256v-128h192v128h-192zM192 704v-128h128v128h-128zM512 704v-128h64v128h-64zM768 704v-128h64v128h-64z" />
<glyph unicode="&#xf7c1;" glyph-name="toleft" data-tags="toleft" d="M64-64h448c35.328 0 64 28.672 64 64s-28.672 64-64 64h-384v768h384c35.328 0 64 28.672 64 64s-28.672 64-64 64h-448c-35.328 0-64-28.672-64-64v-896c0-35.328 28.672-64 64-64v0zM576 704l-256-256 256-256v192h384c35.328 0 64 28.672 64 64s-28.672 64-64 64h-384v192z" />
<glyph unicode="&#xf7c2;" glyph-name="toright" data-tags="toright" d="M960-64h-448c-35.328 0-64 28.672-64 64s28.672 64 64 64h384v768h-384c-35.328 0-64 28.672-64 64s28.672 64 64 64h448c35.328 0 64-28.672 64-64v-896c0-35.328-28.672-64-64-64v0zM448 704l256-256-256-256v192h-384c-35.328 0-64 28.672-64 64s28.672 64 64 64h384v192z" />
<glyph unicode="&#xf7c3;" glyph-name="tree" data-tags="tree" d="M320 928h384c35.328 0 64-28.672 64-64v-64c0-35.328-28.672-64-64-64h-384c-35.328 0-64 28.672-64 64v64c0 35.328 28.672 64 64 64zM576 672h384c35.328 0 64-28.672 64-64v-64c0-35.328-28.672-64-64-64h-384c-35.328 0-64 28.672-64 64v64c0 35.328 28.672 64 64 64zM576 416h384c35.328 0 64-28.672 64-64v-64c0-35.328-28.672-64-64-64h-384c-35.328 0-64 28.672-64 64v64c0 35.328 28.672 64 64 64zM256 672h192v-192h-192v192zM320 608v-64h64v64h-64zM256 416h192v-192h-192v192zM320 352v-64h64v64h-64zM256 160h192v-192h-192v192zM320 96v-64h64v64h-64zM0 928h192v-192h-192v192zM64 864v-64h64v64h-64zM64 736h64v-704h-64v704zM128 608h128v-64h-128v64zM128 352h128v-64h-128v64zM576 160h384c35.328 0 64-28.672 64-64v-64c0-35.328-28.672-64-64-64h-384c-35.328 0-64 28.672-64 64v64c0 35.328 28.672 64 64 64zM128 96h128v-64h-128v64z" />
<glyph unicode="&#xf7c4;" glyph-name="undo" data-tags="undo" d="M64.896 1.344c-0.64 10.56-0.896 21.248-0.896 32 0 300.416 243.584 544 544 544 10.752 0 21.44-0.32 32-0.896v0-191.104c-250.816 0-464.128-160.256-543.232-384h-31.872zM960 480l-384 352v-704z" />
<glyph unicode="&#xf7c5;" glyph-name="undo-two" data-tags="undo-two" d="M640 697.6c20.672 4.224 42.112 6.4 64 6.4 176.704 0 320-143.296 320-320s-143.296-320-320-320c-21.888 0-43.328 2.176-64 6.4v132.544c20.032-7.104 41.536-10.944 64-10.944 106.048 0 192 85.952 192 192s-85.952 192-192 192c-22.464 0-43.968-3.84-64-10.944v132.544zM256 448v384l-256-192zM256 192h384v-128h-512l128 128zM256 704h384v-128h-384v128z" />
<glyph unicode="&#xf7c6;" glyph-name="upload" data-tags="upload" d="M448 512h-192l256 256 256-256h-192v-191.808c0-35.456-28.416-64.192-64-64.192-35.328 0-64 28.032-64 64.192v191.808zM320 128v0c0 0.192 0 0.384 0 0.576v126.784c0 35.648-28.352 64.576-64.576 64.576h-126.784c-0.192 0-0.384 0-0.576 0v512h768v-512c-0.192 0-0.384 0-0.576 0h-126.784c-35.648 0-64.576-28.352-64.576-64.576v-126.784c0-0.192 0-0.384 0-0.576h-384zM64.064 960c-35.392 0-64.064-28.48-64.064-64.064v-895.872c0-35.392 28.48-64.064 64.064-64.064h895.872c35.392 0 64.064 28.48 64.064 64.064v895.872c0 35.392-28.48 64.064-64.064 64.064h-895.872z" />
<glyph unicode="&#xf7c7;" glyph-name="user" data-tags="user" d="M960-64h-896c-35.328 0-64 28.672-64 64v192c0 119.296 105.408 222.208 260.352 277.12-2.432 14.016-4.352 28.224-4.352 42.88v192c0 141.376 114.624 256 256 256s256-114.624 256-256v-192c0-14.656-1.92-28.864-4.288-42.816 154.88-54.976 260.288-157.888 260.288-277.184v-192c0-35.328-28.672-64-64-64v0zM640 704c0 70.72-57.28 128-128 128s-128-57.28-128-128v-192c0-70.72 57.28-128 128-128s128 57.344 128 128v192zM896 192c0 69.12-73.664 129.152-183.168 163.008-46.848-59.84-118.912-99.008-200.832-99.008s-153.92 39.168-200.832 99.008c-109.504-33.856-183.168-93.888-183.168-163.008v-128h768v128z" />
<glyph unicode="&#xf7c8;" glyph-name="users" data-tags="users" d="M960 192h-155.392c-28.16 50.944-77.696 94.848-142.144 128h233.536v64c0 38.912-35.456 73.344-90.176 96.832-33.152-57.6-94.592-96.832-165.824-96.832v128c35.328 0 64 28.672 64 64v192c0 35.328-28.672 64-64 64s-64-28.672-64-64v-88.256c-33.344 38.144-77.44 66.112-128 79.232v9.024c0 106.048 85.952 192 192 192s192-85.952 192-192v-163.52c114.304-44.352 192-125.952 192-220.48v-128c0-35.328-28.672-64-64-64v0zM576 512v-163.52c114.304-44.352 192-125.952 192-220.48v-128c0-35.328-28.672-64-64-64h-640c-35.328 0-64 28.672-64 64v128c0 94.528 77.696 176.128 192 220.48v163.52c0 106.048 85.952 192 192 192s192-85.952 192-192v0zM218.176 224.768c-54.72-23.488-90.176-57.856-90.176-96.768v-64h512v64c0 38.912-35.456 73.344-90.176 96.832-33.152-57.6-94.592-96.832-165.824-96.832s-132.672 39.232-165.824 96.768v0zM448 512c0 35.328-28.672 64-64 64s-64-28.672-64-64v-192c0-35.328 28.672-64 64-64s64 28.672 64 64v192z" />
<glyph unicode="&#xf7c9;" glyph-name="video" data-tags="video" d="M512-64c-282.752 0-512 229.248-512 512s229.248 512 512 512c282.752 0 512-229.248 512-512s-229.248-512-512-512zM256 320c70.72 0 128 57.28 128 128s-57.28 128-128 128c-70.72 0-128-57.28-128-128s57.28-128 128-128zM512 384c35.328 0 64 28.672 64 64s-28.672 64-64 64c-35.328 0-64-28.672-64-64s28.672-64 64-64zM768 320c70.72 0 128 57.28 128 128s-57.28 128-128 128c-70.72 0-128-57.28-128-128s57.28-128 128-128zM512 576c70.72 0 128 57.28 128 128s-57.28 128-128 128c-70.72 0-128-57.28-128-128s57.28-128 128-128zM512 64c70.72 0 128 57.28 128 128s-57.28 128-128 128c-70.72 0-128-57.28-128-128s57.28-128 128-128z" />
<glyph unicode="&#xf7ca;" glyph-name="view-off" data-tags="view-off" d="M577.6 132.096c251.776 31.104 446.4 232.32 446.4 315.904 0 56.384-88.512 166.272-223.424 241.408l-54.784-136.96c14.272-31.872 22.208-67.264 22.208-104.448 0-106.944-65.6-198.592-158.784-236.864l-31.616-79.040zM446.4 763.904c-251.776-31.104-446.4-232.32-446.4-315.904 0-56.384 88.512-166.272 223.424-241.408l54.784 136.96c-14.272 31.872-22.208 67.264-22.208 104.448 0 106.944 65.6 198.592 158.784 236.864l31.616 79.040zM576 768l-256-640h128l256 640h-128z" />
<glyph unicode="&#xf7cb;" glyph-name="view-on" data-tags="view-on" d="M512 128c-282.752 0-512 229.248-512 320s229.248 320 512 320c282.752 0 512-229.248 512-320s-229.248-320-512-320zM512 192c141.376 0 256 114.624 256 256s-114.624 256-256 256c-141.376 0-256-114.624-256-256s114.624-256 256-256zM512 320c70.72 0 128 57.28 128 128s-57.28 128-128 128c-70.72 0-128-57.28-128-128s57.28-128 128-128z" />
<glyph unicode="&#xf7cc;" glyph-name="web-data" data-tags="web-data" d="M64.064 960h895.872c35.584 0 64.064-28.672 64.064-64.064v-895.872c0-35.584-28.672-64.064-64.064-64.064h-895.872c-35.584 0-64.064 28.672-64.064 64.064v895.872c0 35.584 28.672 64.064 64.064 64.064zM128 832v-768h768v768h-768zM128 256h128v-192h-128v192zM256 448v-384h128v384h-128zM768 704v-640h128v640h-128zM384 576h128v-512h-128v512zM512 384h128v-320h-128v320zM640 512v-448h128v448h-128z" />
<glyph unicode="&#xf7cd;" glyph-name="windows" data-tags="windows" d="M960 192h-64v640h-640v64c0 35.328 28.672 64 64 64h640c35.328 0 64-28.672 64-64v-640c0-35.328-28.672-64-64-64v0zM832 704v-704c0-35.328-28.672-64-64-64h-704c-35.328 0-64 28.672-64 64v704c0 35.328 28.672 64 64 64h704c35.328 0 64-28.672 64-64v0zM704 640h-576v-192h576v192zM704 320h-576v-256h576v256zM256 512h-64v64h64v-64zM384 512h-64v64h64v-64zM640 512h-192v64h192v-64z" />
<glyph unicode="&#xf7ce;" glyph-name="yes" data-tags="yes" d="M372.544 120.512c17.664-0.96 35.712 5.248 49.024 18.624l452.352 452.352c25.024 25.024 25.28 65.472 0.128 90.624-25.024 25.024-65.856 24.64-90.624-0.128l-412.672-412.672-141.696 141.696c-24.768 24.768-64.896 24.768-90.112-0.448-25.024-25.024-24.832-65.664-0.448-90.112l181.824-181.824c14.208-14.208 33.536-20.288 52.16-18.048z" />
<glyph unicode="&#xf7cf;" glyph-name="zoom-in" data-tags="zoom-in" d="M994.112-34.112c-37.504-37.504-98.24-37.504-135.744 0l-169.408 169.408c-69.696-44.608-152.064-71.296-240.96-71.296-247.424 0-448 200.576-448 448s200.576 448 448 448c247.424 0 448-200.576 448-448 0-88.896-26.688-171.264-71.296-240.896l169.408-169.472c37.504-37.504 37.504-98.24 0-135.744v0zM448 832c-176.704 0-320-143.296-320-320s143.232-320 320-320c176.704 0 320 143.296 320 320s-143.296 320-320 320v0zM512 320h-128v128h-128v128h128v128h128v-128h128v-128h-128v-128z" />
<glyph unicode="&#xf7d0;" glyph-name="zoom-out" data-tags="zoom-out" d="M994.112-34.112c-37.504-37.504-98.304-37.504-135.744 0l-169.408 169.408c-69.696-44.608-152.064-71.296-240.96-71.296-247.424 0-448 200.576-448 448s200.576 448 448 448c247.424 0 448-200.576 448-448 0-88.896-26.688-171.264-71.296-240.896l169.408-169.472c37.504-37.504 37.504-98.24 0-135.744v0zM448 832c-176.704 0-320-143.296-320-320s143.296-320 320-320c176.768 0 320 143.296 320 320s-143.296 320-320 320v0zM256 576h384v-128h-384v128z" />
</font>
</defs>
</svg>
